<?xml version="1.0" encoding="UTF-8" standalone="no"?>
<svg width="16px" height="16px" viewBox="0 0 16 16" version="1.1" xmlns="http://www.w3.org/2000/svg" xmlns:xlink="http://www.w3.org/1999/xlink" xmlns:sketch="http://www.bohemiancoding.com/sketch/ns">
    <!-- Generator: Sketch 3.0.1 (7597) - http://www.bohemiancoding.com/sketch -->
    <title>wr-icon-community</title>
    <description>Created with Sketch.</description>
    <defs>
        <rect id="path-1" x="0" y="0" width="16" height="16"></rect>
    </defs>
    <g id="Page-1" stroke="none" stroke-width="1" fill="none" fill-rule="evenodd" sketch:type="MSPage">
        <g id="Ideas/Resources" sketch:type="MSLayerGroup" transform="translate(-120.000000, 0.000000)">
            <g id="Community" transform="translate(120.000000, 0.000000)">
                <mask id="mask-2" sketch:name="Mask" fill="white">
                    <use xlink:href="#path-1"></use>
                </mask>
                <g id="Mask"></g>
                <g id="Community-Outer" mask="url(#mask-2)">
                    <g transform="translate(8.000000, 8.000000) rotate(-90.000000) translate(-8.000000, -8.000000) " id="Nodes">
                        <g>
                            <path d="M5.46602388,2 C5.46602388,1.44771525 5.01830863,1 4.46602388,1 C3.91373913,1 3.46602388,1.44771525 3.46602388,2 C3.46602388,2.55228475 3.91373913,3 4.46602388,3 C5.01830863,3 5.46602388,2.55228475 5.46602388,2 Z" id="Path" fill="#FFAF00" sketch:type="MSShapeGroup" transform="translate(4.466024, 2.000000) rotate(330.000000) translate(-4.466024, -2.000000) "></path>
                            <path d="M1.8660254,5.46602388 C2.41831015,5.46602388 2.8660254,5.01830863 2.8660254,4.46602388 C2.8660254,3.91373913 2.41831015,3.46602388 1.8660254,3.46602388 C1.31374065,3.46602388 0.866025404,3.91373913 0.866025404,4.46602388 C0.866025404,5.01830863 1.31374065,5.46602388 1.8660254,5.46602388 L1.8660254,5.46602388 Z" id="Path" fill="#601EBD" sketch:type="MSShapeGroup" transform="translate(1.866025, 4.466024) rotate(300.000000) translate(-1.866025, -4.466024) "></path>
                            <path d="M0.99207274,9 C1.54435749,9 1.99207274,8.55228475 1.99207274,8 C1.99207274,7.44771525 1.54435749,7 0.99207274,7 C0.43978799,7 -0.00792726018,7.44771525 -0.00792726018,8 C-0.00792726018,8.55228475 0.43978799,9 0.99207274,9 L0.99207274,9 Z" id="Path" fill="#AF1639" sketch:type="MSShapeGroup" transform="translate(0.992073, 8.000000) rotate(270.000000) translate(-0.992073, -8.000000) "></path>
                            <path d="M2.8660254,11.5660224 C2.8660254,11.0137376 2.41831015,10.5660224 1.8660254,10.5660224 C1.31374065,10.5660224 0.866025404,11.0137376 0.866025404,11.5660224 C0.866025404,12.1183071 1.31374065,12.5660224 1.8660254,12.5660224 C2.41831015,12.5660224 2.8660254,12.1183071 2.8660254,11.5660224 Z" id="Path" fill="#00D679" sketch:type="MSShapeGroup" transform="translate(1.866025, 11.566022) rotate(240.000000) translate(-1.866025, -11.566022) "></path>
                            <path d="M5.46602388,14.0660224 C5.46602388,13.5137376 5.01830863,13.0660224 4.46602388,13.0660224 C3.91373913,13.0660224 3.46602388,13.5137376 3.46602388,14.0660224 C3.46602388,14.6183071 3.91373913,15.0660224 4.46602388,15.0660224 C5.01830863,15.0660224 5.46602388,14.6183071 5.46602388,14.0660224 Z" id="Path" fill="#FFAF00" sketch:type="MSShapeGroup" transform="translate(4.466024, 14.066022) rotate(210.000000) translate(-4.466024, -14.066022) "></path>
                            <path d="M7.99207274,16 C8.54435749,16 8.99207274,15.5522847 8.99207274,15 C8.99207274,14.4477153 8.54435749,14 7.99207274,14 C7.43978799,14 6.99207274,14.4477153 6.99207274,15 C6.99207274,15.5522847 7.43978799,16 7.99207274,16 L7.99207274,16 Z" id="Path" fill="#4095C5" sketch:type="MSShapeGroup" transform="translate(7.992073, 15.000000) rotate(180.000000) translate(-7.992073, -15.000000) "></path>
                            <path d="M11.4660239,15.0660224 C12.0183086,15.0660224 12.4660239,14.6183071 12.4660239,14.0660224 C12.4660239,13.5137376 12.0183086,13.0660224 11.4660239,13.0660224 C10.9137391,13.0660224 10.4660239,13.5137376 10.4660239,14.0660224 C10.4660239,14.6183071 10.9137391,15.0660224 11.4660239,15.0660224 L11.4660239,15.0660224 Z" id="Path" fill="#601EBD" sketch:type="MSShapeGroup" transform="translate(11.466024, 14.066022) rotate(150.000000) translate(-11.466024, -14.066022) "></path>
                            <path d="M14.0660224,12.5660224 C14.6183071,12.5660224 15.0660224,12.1183071 15.0660224,11.5660224 C15.0660224,11.0137376 14.6183071,10.5660224 14.0660224,10.5660224 C13.5137376,10.5660224 13.0660224,11.0137376 13.0660224,11.5660224 C13.0660224,12.1183071 13.5137376,12.5660224 14.0660224,12.5660224 L14.0660224,12.5660224 Z" id="Path" fill="#8B572A" sketch:type="MSShapeGroup" transform="translate(14.066022, 11.566022) rotate(120.000000) translate(-14.066022, -11.566022) "></path>
                            <path d="M14.9920727,9 C15.5443575,9 15.9920727,8.55228475 15.9920727,8 C15.9920727,7.44771525 15.5443575,7 14.9920727,7 C14.439788,7 13.9920727,7.44771525 13.9920727,8 C13.9920727,8.55228475 14.439788,9 14.9920727,9 L14.9920727,9 Z" id="Path" fill="#FF769F" sketch:type="MSShapeGroup" transform="translate(14.992073, 8.000000) rotate(90.000000) translate(-14.992073, -8.000000) "></path>
                            <path d="M15.0660224,4.46602388 C15.0660224,3.91373913 14.6183071,3.46602388 14.0660224,3.46602388 C13.5137376,3.46602388 13.0660224,3.91373913 13.0660224,4.46602388 C13.0660224,5.01830863 13.5137376,5.46602388 14.0660224,5.46602388 C14.6183071,5.46602388 15.0660224,5.01830863 15.0660224,4.46602388 Z" id="Path" fill="#AF1639" sketch:type="MSShapeGroup" transform="translate(14.066022, 4.466024) rotate(60.000000) translate(-14.066022, -4.466024) "></path>
                            <path d="M12.4660239,2 C12.4660239,1.44771525 12.0183086,1 11.4660239,1 C10.9137391,1 10.4660239,1.44771525 10.4660239,2 C10.4660239,2.55228475 10.9137391,3 11.4660239,3 C12.0183086,3 12.4660239,2.55228475 12.4660239,2 Z" id="Path" fill="#4095C5" sketch:type="MSShapeGroup" transform="translate(11.466024, 2.000000) rotate(30.000000) translate(-11.466024, -2.000000) "></path>
                            <path d="M7.99207274,2 C8.54435749,2 8.99207274,1.55228475 8.99207274,1 C8.99207274,0.44771525 8.54435749,0 7.99207274,0 C7.43978799,0 6.99207274,0.44771525 6.99207274,1 C6.99207274,1.55228475 7.43978799,2 7.99207274,2 L7.99207274,2 Z" id="Path" fill="#00D679" sketch:type="MSShapeGroup"></path>
                        </g>
                    </g>
                </g>
                <g id="Community-Middle" mask="url(#mask-2)" sketch:type="MSShapeGroup">
                    <g transform="translate(3.000000, 3.000000)" id="Path">
                        <path d="M2.21421661,3.21421661 C2.76650136,3.21421661 3.21421661,2.76650136 3.21421661,2.21421661 C3.21421661,1.66193186 2.76650136,1.21421661 2.21421661,1.21421661 C1.66193186,1.21421661 1.21421661,1.66193186 1.21421661,2.21421661 C1.21421661,2.76650136 1.66193186,3.21421661 2.21421661,3.21421661 L2.21421661,3.21421661 Z" fill="#8B572A" transform="translate(2.214217, 2.214217) rotate(315.000000) translate(-2.214217, -2.214217) "></path>
                        <path d="M1,6 C1.55228475,6 2,5.55228475 2,5 C2,4.44771525 1.55228475,4 1,4 C0.44771525,4 0,4.44771525 0,5 C0,5.55228475 0.44771525,6 1,6 L1,6 Z" fill="#FFAF00" transform="translate(1.000000, 5.000000) rotate(270.000000) translate(-1.000000, -5.000000) "></path>
                        <path d="M2.21421661,8.81421509 C2.76650136,8.81421509 3.21421661,8.36649984 3.21421661,7.81421509 C3.21421661,7.26193034 2.76650136,6.81421509 2.21421661,6.81421509 C1.66193186,6.81421509 1.21421661,7.26193034 1.21421661,7.81421509 C1.21421661,8.36649984 1.66193186,8.81421509 2.21421661,8.81421509 L2.21421661,8.81421509 Z" fill="#00D679" transform="translate(2.214217, 7.814215) rotate(225.000000) translate(-2.214217, -7.814215) "></path>
                        <path d="M5,10 C5.55228475,10 6,9.55228475 6,9 C6,8.44771525 5.55228475,8 5,8 C4.44771525,8 4,8.44771525 4,9 C4,9.55228475 4.44771525,10 5,10 L5,10 Z" fill="#4095C5" transform="translate(5.000000, 9.000000) rotate(180.000000) translate(-5.000000, -9.000000) "></path>
                        <path d="M7.81420746,8.81421509 C8.36649221,8.81421509 8.81420746,8.36649984 8.81420746,7.81421509 C8.81420746,7.26193034 8.36649221,6.81421509 7.81420746,6.81421509 C7.26192271,6.81421509 6.81420746,7.26193034 6.81420746,7.81421509 C6.81420746,8.36649984 7.26192271,8.81421509 7.81420746,8.81421509 L7.81420746,8.81421509 Z" fill="#FF769F" transform="translate(7.814207, 7.814215) rotate(135.000000) translate(-7.814207, -7.814215) "></path>
                        <path d="M9,6 C9.55228475,6 10,5.55228475 10,5 C10,4.44771525 9.55228475,4 9,4 C8.44771525,4 8,4.44771525 8,5 C8,5.55228475 8.44771525,6 9,6 L9,6 Z" fill="#AF1639" transform="translate(9.000000, 5.000000) rotate(90.000000) translate(-9.000000, -5.000000) "></path>
                        <path d="M7.81420746,3.21421661 C8.36649221,3.21421661 8.81420746,2.76650136 8.81420746,2.21421661 C8.81420746,1.66193186 8.36649221,1.21421661 7.81420746,1.21421661 C7.26192271,1.21421661 6.81420746,1.66193186 6.81420746,2.21421661 C6.81420746,2.76650136 7.26192271,3.21421661 7.81420746,3.21421661 L7.81420746,3.21421661 Z" fill="#FFAF00" transform="translate(7.814207, 2.214217) rotate(45.000000) translate(-7.814207, -2.214217) "></path>
                        <path d="M5,2 C5.55228475,2 6,1.55228475 6,1 C6,0.44771525 5.55228475,0 5,0 C4.44771525,0 4,0.44771525 4,1 C4,1.55228475 4.44771525,2 5,2 L5,2 Z" fill="#00D679"></path>
                    </g>
                </g>
                <path d="M9,8 C9,7.44771525 8.55228475,7 8,7 C7.44771525,7 7,7.44771525 7,8 C7,8.55228475 7.44771525,9 8,9 C8.55228475,9 9,8.55228475 9,8 Z" id="Hub" fill="#10988B" sketch:type="MSShapeGroup" mask="url(#mask-2)"></path>
            </g>
        </g>
    </g>
</svg>