<?xml version="1.0" encoding="UTF-8" standalone="no"?>
<svg width="16px" height="16px" viewBox="0 0 16 16" version="1.1" xmlns="http://www.w3.org/2000/svg" xmlns:xlink="http://www.w3.org/1999/xlink" xmlns:sketch="http://www.bohemiancoding.com/sketch/ns">
    <!-- Generator: Sketch 3.0.1 (7597) - http://www.bohemiancoding.com/sketch -->
    <title>wr-icon-series-d</title>
    <description>Created with Sketch.</description>
    <defs>
        <rect id="path-1" x="0" y="0" width="16" height="16"></rect>
        <radialGradient cx="50%" cy="64.1865495%" fx="50%" fy="64.1865495%" r="100%" id="radialGradient-3">
            <stop stop-color="#FFFFFF" stop-opacity="0.5" offset="0%"></stop>
            <stop stop-color="#000000" stop-opacity="0.5" offset="100%"></stop>
        </radialGradient>
        <path d="M6.34441936,4.08377285 C-1.02727131,8.09694155 -2.94056766,15.0067896 5.5573852,15.9776 L7.4423852,15.9776 C15.9010068,15.0113087 14.0448587,8.16114414 6.75795019,4.14000468 L8.99988532,1.70986688 L5.49988521,9.64800506e-09 C4.95120907,0.781873631 5.94492933,3.19232934 6.34441936,4.08377285 Z" id="path-4"></path>
    </defs>
    <g id="Page-1" stroke="none" stroke-width="1" fill="none" fill-rule="evenodd" sketch:type="MSPage">
        <g id="Money" sketch:type="MSLayerGroup" transform="translate(0.000000, -96.000000)">
            <g id="Series-D" transform="translate(0.000000, 96.000000)">
                <mask id="mask-2" sketch:name="Mask" fill="white">
                    <use xlink:href="#path-1"></use>
                </mask>
                <g id="Mask"></g>
                <g id="Moneybag" mask="url(#mask-2)">
                    <g transform="translate(1.000000, 0.000000)">
                        <ellipse id="Shadow" opacity="0.3" fill="#000000" sketch:type="MSShapeGroup" cx="8.5" cy="14.5" rx="6.5" ry="1.5"></ellipse>
                        <g id="Moneybag">
                            <use fill="#EED2BE" sketch:type="MSShapeGroup" xlink:href="#path-4"></use>
                            <use fill-opacity="0.8" fill="url(#radialGradient-3)" xlink:href="#path-4"></use>
                        </g>
                    </g>
                </g>
                <path d="M5.14892578,13.5 L5.14892578,7.1015625 L7.34619141,7.1015625 C8.12842188,7.1015625 8.77294668,7.35131586 9.27978516,7.85083008 C9.78662363,8.35034429 10.0400391,8.99120703 10.0400391,9.7734375 L10.0400391,10.8325195 C10.0400391,11.6176797 9.78662363,12.2585424 9.27978516,12.755127 C8.77294668,13.2517115 8.12842188,13.5 7.34619141,13.5 L5.14892578,13.5 Z M6.43212891,8.09033203 L6.43212891,12.515625 L7.28027344,12.515625 C7.74023667,12.515625 8.10058463,12.3603531 8.36132812,12.0498047 C8.62207162,11.7392563 8.75244141,11.3334986 8.75244141,10.8325195 L8.75244141,9.76464844 C8.75244141,9.26952877 8.62207162,8.86670077 8.36132812,8.55615234 C8.10058463,8.24560392 7.74023667,8.09033203 7.28027344,8.09033203 L6.43212891,8.09033203 Z" id="D" fill="#601EBD" sketch:type="MSShapeGroup" mask="url(#mask-2)"></path>
            </g>
        </g>
    </g>
</svg>