<?xml version="1.0" encoding="UTF-8" standalone="no"?>
<svg width="16px" height="16px" viewBox="0 0 16 16" version="1.1" xmlns="http://www.w3.org/2000/svg" xmlns:xlink="http://www.w3.org/1999/xlink" xmlns:sketch="http://www.bohemiancoding.com/sketch/ns">
    <!-- Generator: Sketch 3.0.1 (7597) - http://www.bohemiancoding.com/sketch -->
    <title>wr-icon-services</title>
    <description>Created with Sketch.</description>
    <defs>
        <rect id="path-1" x="0" y="0" width="16" height="16"></rect>
        <linearGradient x1="50%" y1="0%" x2="50%" y2="100%" id="linearGradient-3">
            <stop stop-color="#00D679" offset="0%"></stop>
            <stop stop-color="#00A35C" offset="100%"></stop>
        </linearGradient>
    </defs>
    <g id="Page-1" stroke="none" stroke-width="1" fill="none" fill-rule="evenodd" sketch:type="MSPage">
        <g id="Organizations" sketch:type="MSLayerGroup" transform="translate(-192.000000, 0.000000)">
            <g id="Professional-Services" transform="translate(192.000000, 0.000000)">
                <mask id="mask-2" sketch:name="Mask" fill="white">
                    <use xlink:href="#path-1"></use>
                </mask>
                <g id="Mask"></g>
                <g id="Lamp" mask="url(#mask-2)">
                    <g transform="translate(2.000000, 0.000000)">
                        <g id="Pullstring" stroke="none" stroke-width="1" fill="none" fill-rule="evenodd" sketch:type="MSLayerGroup" transform="translate(11.000000, 5.000000)">
                            <path d="M0.5,3 C0.776142375,3 1,2.77614237 1,2.5 C1,2.22385763 0.776142375,2 0.5,2 C0.223857625,2 0,2.22385763 0,2.5 C0,2.77614237 0.223857625,3 0.5,3 Z M0.5,1.5 C0.776142375,1.5 1,1.27614237 1,1 C1,0.723857625 0.776142375,0.5 0.5,0.5 C0.223857625,0.5 0,0.723857625 0,1 C0,1.27614237 0.223857625,1.5 0.5,1.5 Z M0.5,4.5 C0.776142375,4.5 1,4.27614237 1,4 C1,3.72385763 0.776142375,3.5 0.5,3.5 C0.223857625,3.5 0,3.72385763 0,4 C0,4.27614237 0.223857625,4.5 0.5,4.5 Z" id="Chain" fill="#BFBFBF" sketch:type="MSShapeGroup"></path>
                            <rect id="Dangly-Bit" fill="#00A45D" sketch:type="MSShapeGroup" x="0" y="5" width="1" height="2" rx="0.5"></rect>
                        </g>
                        <path d="M1.5,3.5 L-0.5,3.5 L-0.5,8.5 L5.5,11.5 L5.5,14.5" id="Neck" stroke="#FFAF00" stroke-width="1" stroke-linecap="round" stroke-linejoin="round" fill="none" sketch:type="MSShapeGroup"></path>
                        <g id="Base" stroke="none" stroke-width="1" fill="none" fill-rule="evenodd" sketch:type="MSLayerGroup" transform="translate(1.000000, 14.000000)">
                            <rect id="Rectangle-363" fill="#D99400" sketch:type="MSShapeGroup" x="0" y="1" width="9" height="1"></rect>
                            <rect id="Rectangle-364" fill="#FFAF00" sketch:type="MSShapeGroup" x="2" y="0" width="5" height="1"></rect>
                        </g>
                        <path d="M1,3 C1,1.34651712 2.34187067,0 3.99715203,0 L10.002848,0 C11.6583772,0 13,1.34314575 13,3 L13,6 L1,6 L1,3 Z" id="Lampshade" stroke="none" fill="url(#linearGradient-3)" fill-rule="evenodd" sketch:type="MSShapeGroup"></path>
                    </g>
                </g>
            </g>
        </g>
    </g>
</svg>