<svg width="475" height="500" id="weareyvr-mark">
  <line x1="54.24199034025416" y1="3.299654954555521" x2="431.2419903402542" y2="3.299654954555521" stroke-width="3" stroke="white"></line>
  <line x1="242.25800965974585" y1="496.70034504544446" x2="222.25800965974585" y2="496.70034504544446" stroke-width="3" stroke="white"></line>
  <line x1="464.6561797817127" y1="73.93390793044502" x2="189.64199085978746" y2="424.8701101429879" stroke-width="3" stroke="white"></line>
  <line x1="286.1561797817127" y1="426.066092069555" x2="11.141990859787455" y2="75.12988985701209" stroke-width="3" stroke="white"></line>
  <path class="one" d="M-39.09250943826296,26.98195148278422A47.5,47.5 0 0,1 5.4129248078711445,-47.190573688230714L5.071055872637178,-44.21011640265825A44.5,44.5 0 0,0 -36.62350884216214,25.27782823123995Z" transform="translate(49,49)" style="fill: #ffffff;"></path>
  <path d="M5.4129248078711445,-47.190573688230714A47.5,47.5 0 0,1 39.91670738329025,25.746970145568227L37.39565218013508,24.120845715321813A44.5,44.5 0 0,0 5.071055872637178,-44.21011640265825Z" transform="translate(426,49)" style="fill: #ffffff;"></path>
  <path d="M39.91670738329025,-25.746970145568227A47.5,47.5 0 0,1 -5.412924807871139,47.190573688230714L-5.071055872637173,44.21011640265825A44.5,44.5 0 0,0 37.39565218013508,-24.120845715321813Z" transform="translate(247.5,451)" style="fill: #ffffff;"></path>
  <path d="M-5.412924807871139,47.190573688230714A47.5,47.5 0 0,1 -39.09250943826297,-26.981951482784204L-36.62350884216215,-25.277828231239937A44.5,44.5 0 0,0 -5.071055872637173,44.21011640265825Z" transform="translate(227.5,451)" style="fill: #ffffff;"></path>
</svg>