<?xml version="1.0" encoding="UTF-8" standalone="no"?>
<svg width="16px" height="16px" viewBox="0 0 16 16" version="1.1" xmlns="http://www.w3.org/2000/svg" xmlns:xlink="http://www.w3.org/1999/xlink" xmlns:sketch="http://www.bohemiancoding.com/sketch/ns">
    <!-- Generator: Sketch 3.0.1 (7597) - http://www.bohemiancoding.com/sketch -->
    <title>wr-icon-investor-av</title>
    <description>Created with Sketch.</description>
    <defs>
        <rect id="path-1" x="0" y="0" width="16" height="16"></rect>
        <rect id="path-3" x="0" y="0" width="10" height="6"></rect>
        <linearGradient x1="0%" y1="69.2047119%" x2="100%" y2="87.399292%" id="linearGradient-5">
            <stop stop-color="#FFFFFF" stop-opacity="0.5" offset="0%"></stop>
            <stop stop-color="#000000" stop-opacity="0.5" offset="100%"></stop>
        </linearGradient>
        <path d="M8.54545455,12.0909091 L10,11 L6,11 L7.45454545,12.0909091 L6,15 L10,15 L8.54545455,12.0909091 Z" id="path-6"></path>
        <path id="path-7" d="M13.2739258,12.3554687 L12.5,13 L12.5,14 L15,14 L15,13 L13.2739258,12.3554687 Z"></path>
        <radialGradient cx="50%" cy="0%" fx="50%" fy="0%" r="87.4900351%" id="radialGradient-8">
            <stop stop-color="#6D22D6" offset="0%"></stop>
            <stop stop-color="#512DBD" stop-opacity="0" offset="100%"></stop>
        </radialGradient>
    </defs>
    <g id="Page-1" stroke="none" stroke-width="1" fill="none" fill-rule="evenodd" sketch:type="MSPage">
        <g id="People---Avatars" sketch:type="MSLayerGroup" transform="translate(-128.000000, 0.000000)">
            <g id="Investor-Avatar" transform="translate(128.000000, 0.000000)">
                <mask id="mask-2" sketch:name="Mask" fill="white">
                    <use xlink:href="#path-1"></use>
                </mask>
                <g id="Mask"></g>
                <g id="Investor" mask="url(#mask-2)">
                    <g transform="translate(0.000000, 1.000000)">
                        <g id="Shirt" stroke-width="1" fill="none" sketch:type="MSLayerGroup" transform="translate(3.000000, 9.000000)">
                            <mask id="mask-4" sketch:name="Mask" fill="white">
                                <use xlink:href="#path-3"></use>
                            </mask>
                            <use id="Mask" sketch:type="MSShapeGroup" xlink:href="#path-3"></use>
                            <path d="M9.45094563,9.23760262e-16 C8.50000022,1.04006167 6.83076152,1.5 5,1.5 C3.16923848,1.5 1.5,1.04006159 0.549054369,0 L0.5,7 L9.5,7 L9.45094563,9.23760262e-16 Z" fill="#FDFDFD" sketch:type="MSShapeGroup" mask="url(#mask-4)"></path>
                        </g>
                        <g id="Tie">
                            <use fill="#6D22D6" sketch:type="MSShapeGroup" xlink:href="#path-6"></use>
                            <use fill-opacity="0.300000012" fill="url(#linearGradient-5)" xlink:href="#path-6"></use>
                        </g>
                        <path d="M8,10.5 L6,12 L4,9.5 L8,10.5 Z M8,10.5 L10,12 L12,9.5 L8,10.5 Z" id="Collar" fill="#DAD8CF" sketch:type="MSShapeGroup"></path>
                        <g id="Suitjacket" stroke-width="1" fill="none" sketch:type="MSLayerGroup" transform="translate(0.000000, 9.000000)">
                            <path d="M11.1119875,6 L14.9991283,6 C15.5518945,6 16,5.5536886 16,5.00245535 L16,2.24853196 C15.1993126,1.21594562 13.9620176,0.358221283 12.4509456,-0.216087369 C12.2836187,-0.00221538606 12.1043428,0.199072781 11.9139211,0.386464924 L11.1119875,6 Z M4.88801248,6 L1.00087166,6 C0.444630861,6 -6.43929354e-15,5.55338405 -6.43929354e-15,5.00245535 L-2.27373675e-13,2.24853196 C0.800687443,1.21594562 2.03798241,0.358221283 3.54905437,-0.216087369 C3.71638133,-0.00221538606 3.89565719,0.199072781 4.0860789,0.386464924 L4.88801248,6 Z" id="Shoulders" fill="#000000" sketch:type="MSShapeGroup"></path>
                        </g>
                        <g id="Pocket-Square">
                            <use fill="#6D22D6" sketch:type="MSShapeGroup" xlink:href="#path-7"></use>
                            <use fill-opacity="0.300000012" fill="url(#linearGradient-5)" xlink:href="#path-7"></use>
                        </g>
                        <g id="Face" stroke-width="1" fill="none" sketch:type="MSLayerGroup" transform="translate(4.000000, 0.000000)">
                            <g id="Person-Face" sketch:type="MSShapeGroup">
                                <path d="M4,10 C6.34033203,10 8,7.762 8,5 C8,2.238 8,0 4,0 C0,0 0,2.238 0,5 C0,7.762 1.65966797,10 4,10 Z" id="Outer-Frame" fill-opacity="0.65" fill="#D9D9D9"></path>
                                <path d="M4,1 C6.66961542,1 7,1.59783089 7,5 C7,7.31386274 5.68154504,9 4,9 C2.31845496,9 1,7.31386274 1,5 C1,1.59783089 1.33038458,1 4,1 Z" id="Inner-Fill" fill="#FCFCFC"></path>
                            </g>
                            <path d="M4,10 C6.34033203,10 8,7.762 8,5 C8,2.238 8,0 4,0 C0,0 0,2.238 0,5 C0,7.762 1.65966797,10 4,10 Z M4,1 C6.66961542,1 7,1.59783089 7,5 C7,7.31386274 5.68154504,9 4,9 C2.31845496,9 1,7.31386274 1,5 C1,1.59783089 1.33038458,1 4,1 Z" id="Face-Glow" fill="url(#radialGradient-8)" sketch:type="MSShapeGroup"></path>
                            <g id="Dollar-Sign" transform="translate(2.000000, 2.000000)" sketch:type="MSShapeGroup">
                                <path d="M2,0.375 L2,0.75" id="Line-Top" stroke="#6D22D6" stroke-linecap="square"></path>
                                <path d="M2,5.19726562 L2,5.578125" id="Line-Bottom" stroke="#6D22D6" stroke-linecap="square"></path>
                                <path d="M2.8874784,4.07249099 C2.8874784,3.89896247 2.82192417,3.75952201 2.69081374,3.65416541 C2.55970331,3.54880882 2.32998806,3.44965116 2.0016611,3.35668945 C1.42874156,3.20175328 0.995753105,3.01789845 0.70268273,2.80511944 C0.409612354,2.59234043 0.263079364,2.3010648 0.263079364,1.9312838 C0.263079364,1.56150281 0.431096514,1.25938181 0.767135855,1.02491173 C1.1031752,0.790441661 1.53230752,0.673208383 2.05454571,0.673208383 C2.58339451,0.673208383 3.01417946,0.804902154 3.3469135,1.06829364 C3.67964753,1.33168514 3.8405033,1.65652977 3.82948561,2.04283729 L3.82287504,2.06142954 L2.8874784,2.06142954 C2.8874784,1.85278216 2.81311016,1.68390427 2.66437143,1.55479079 C2.51563271,1.42567731 2.30685074,1.36112154 2.03801927,1.36112154 C1.78020548,1.36112154 1.5807884,1.41483194 1.43976206,1.52225436 C1.29873571,1.62967677 1.2282236,1.76705145 1.2282236,1.93438251 C1.2282236,2.08725287 1.30369359,2.21274928 1.45463585,2.31087553 C1.60557812,2.40900177 1.86614242,2.51280745 2.23633658,2.62229567 C2.76738891,2.76070532 3.16952832,2.94352726 3.44276686,3.17076698 C3.71600541,3.3980067 3.85262263,3.69651257 3.85262263,4.06629357 C3.85262263,4.45260109 3.69011424,4.75730432 3.36509259,4.98041241 C3.04007093,5.2035205 2.6109386,5.31507287 2.07768273,5.31507287 C1.55324101,5.31507287 1.09601401,5.18854356 0.705988018,4.93548114 C0.31596203,4.68241873 0.12646072,4.32762022 0.137478403,3.87107497 L0.14408898,3.85248272 L1.0827909,3.85248272 C1.0827909,4.12103875 1.17038017,4.31780474 1.34556134,4.44278658 C1.5207425,4.56776843 1.76478052,4.63025841 2.07768273,4.63025841 C2.33990359,4.63025841 2.54042242,4.57964669 2.67924523,4.47842172 C2.81806804,4.37719676 2.8874784,4.24188787 2.8874784,4.07249099 L2.8874784,4.07249099 Z" id="S" fill="#6D22D7"></path>
                            </g>
                        </g>
                    </g>
                </g>
            </g>
        </g>
    </g>
</svg>