<?xml version="1.0" encoding="UTF-8" standalone="no"?>
<svg width="16px" height="16px" viewBox="0 0 16 16" version="1.1" xmlns="http://www.w3.org/2000/svg" xmlns:xlink="http://www.w3.org/1999/xlink" xmlns:sketch="http://www.bohemiancoding.com/sketch/ns">
    <!-- Generator: Sketch 3.0.1 (7597) - http://www.bohemiancoding.com/sketch -->
    <title>wr-icon-series-b</title>
    <description>Created with Sketch.</description>
    <defs>
        <rect id="path-1" x="0" y="0" width="16" height="16"></rect>
        <radialGradient cx="50%" cy="64.1865495%" fx="50%" fy="64.1865495%" r="100%" id="radialGradient-3">
            <stop stop-color="#FFFFFF" stop-opacity="0.5" offset="0%"></stop>
            <stop stop-color="#000000" stop-opacity="0.5" offset="100%"></stop>
        </radialGradient>
        <path d="M6.34441936,4.08377285 C-1.02727131,8.09694155 -2.94056766,15.0067896 5.5573852,15.9776 L7.4423852,15.9776 C15.9010068,15.0113087 14.0448587,8.16114414 6.75795019,4.14000468 L8.99988532,1.70986688 L5.49988521,9.64800506e-09 C4.95120907,0.781873631 5.94492933,3.19232934 6.34441936,4.08377285 Z" id="path-4"></path>
    </defs>
    <g id="Page-1" stroke="none" stroke-width="1" fill="none" fill-rule="evenodd" sketch:type="MSPage">
        <g id="Money" sketch:type="MSLayerGroup" transform="translate(0.000000, -48.000000)">
            <g id="Series-B" transform="translate(0.000000, 48.000000)">
                <mask id="mask-2" sketch:name="Mask" fill="white">
                    <use xlink:href="#path-1"></use>
                </mask>
                <g id="Mask"></g>
                <g id="Moneybag" mask="url(#mask-2)">
                    <g transform="translate(1.000000, 0.000000)">
                        <ellipse id="Shadow" opacity="0.3" fill="#000000" sketch:type="MSShapeGroup" cx="8.5" cy="14.5" rx="6.5" ry="1.5"></ellipse>
                        <g id="Moneybag">
                            <use fill="#EED2BE" sketch:type="MSShapeGroup" xlink:href="#path-4"></use>
                            <use fill-opacity="0.8" fill="url(#radialGradient-3)" xlink:href="#path-4"></use>
                        </g>
                    </g>
                </g>
                <path d="M5.71044922,13.5 L5.71044922,7.1015625 L7.87255859,7.1015625 C8.62549205,7.1015625 9.21288852,7.24804541 9.63476562,7.54101562 C10.0566427,7.83398584 10.2675781,8.27196974 10.2675781,8.85498047 C10.2675781,9.15088039 10.1892098,9.41528204 10.0324707,9.64819336 C9.87573164,9.88110468 9.64795071,10.0561518 9.34912109,10.1733398 C9.73291208,10.2553715 10.020751,10.431151 10.2126465,10.7006836 C10.404542,10.9702162 10.5004883,11.2822248 10.5004883,11.6367188 C10.5004883,12.2490265 10.2983419,12.7126449 9.89404297,13.0275879 C9.48974407,13.3425309 8.91699589,13.5 8.17578125,13.5 L5.71044922,13.5 Z M6.99365234,10.6699219 L6.99365234,12.515625 L8.17578125,12.515625 C8.5156267,12.515625 8.77490145,12.4416511 8.95361328,12.2937012 C9.13232511,12.1457512 9.22167969,11.9267593 9.22167969,11.6367188 C9.22167969,11.3232406 9.14550857,11.0837411 8.99316406,10.9182129 C8.84081955,10.7526847 8.60058758,10.6699219 8.27246094,10.6699219 L6.99365234,10.6699219 Z M6.99365234,9.78222656 L7.91650391,9.78222656 C8.25927906,9.78222656 8.5229483,9.71191477 8.70751953,9.57128906 C8.89209077,9.43066336 8.984375,9.22558729 8.984375,8.95605469 C8.984375,8.66015477 8.89135835,8.44189523 8.70532227,8.30126953 C8.51928618,8.16064383 8.24170106,8.09033203 7.87255859,8.09033203 L6.99365234,8.09033203 L6.99365234,9.78222656 Z" id="B" fill="#601EBD" sketch:type="MSShapeGroup" mask="url(#mask-2)"></path>
            </g>
        </g>
    </g>
</svg>