<?xml version="1.0" encoding="UTF-8" standalone="no"?>
<svg width="16px" height="16px" viewBox="0 0 16 16" version="1.1" xmlns="http://www.w3.org/2000/svg" xmlns:xlink="http://www.w3.org/1999/xlink" xmlns:sketch="http://www.bohemiancoding.com/sketch/ns">
    <!-- Generator: Sketch 3.0.1 (7597) - http://www.bohemiancoding.com/sketch -->
    <title>wr-icon-angel-investor-av</title>
    <description>Created with Sketch.</description>
    <defs>
        <rect id="path-1" x="0" y="0" width="16" height="16"></rect>
        <filter x="-50%" y="-50%" width="200%" height="200%" filterUnits="objectBoundingBox" id="filter-3">
            <feMorphology radius="1.5" in="SourceAlpha" operator="dilate" result="shadowSpreadOuter1"></feMorphology>
            <feOffset dx="0" dy="0.5" in="shadowSpreadOuter1" result="shadowOffsetOuter1"></feOffset>
            <feGaussianBlur stdDeviation="0.75" in="shadowOffsetOuter1" result="shadowBlurOuter1"></feGaussianBlur>
            <feColorMatrix values="0 0 0 0 1   0 0 0 0 0.843137255   0 0 0 0 0.0784313725  0 0 0 0.281125453 0" in="shadowBlurOuter1" type="matrix" result="shadowMatrixOuter1"></feColorMatrix>
            <feMerge>
                <feMergeNode in="shadowMatrixOuter1"></feMergeNode>
                <feMergeNode in="SourceGraphic"></feMergeNode>
            </feMerge>
        </filter>
        <rect id="path-4" x="0" y="0" width="10" height="6"></rect>
        <linearGradient x1="0%" y1="69.2047119%" x2="100%" y2="87.399292%" id="linearGradient-6">
            <stop stop-color="#FFFFFF" stop-opacity="0.5" offset="0%"></stop>
            <stop stop-color="#000000" stop-opacity="0.5" offset="100%"></stop>
        </linearGradient>
        <path d="M8.54545455,12.0909091 L10,11 L6,11 L7.45454545,12.0909091 L6,15 L10,15 L8.54545455,12.0909091 Z" id="path-7"></path>
        <path d="M11.1428571,6 L14.9991283,6 C15.5518945,6 16,5.5536886 16,5.00245535 L16,2.24853196 C15.1993126,1.21594562 13.9620176,0.358221283 12.4509456,-0.216087369 C12.2941933,-0.0157315755 12.1269547,0.173580676 11.9498899,0.350770572 L11.1428571,6 Z M4.85714286,6 L1.00087166,6 C0.444630861,6 -6.43929354e-15,5.55338405 -6.43929354e-15,5.00245535 L-2.27373675e-13,2.24853196 C0.800687443,1.21594562 2.03798241,0.358221283 3.54905437,-0.216087369 C3.70580668,-0.0157315755 3.87304532,0.173580676 4.05011008,0.350770572 L4.85714286,6 Z" id="path-8"></path>
        <path d="M4.5,3.5 L4.5,6 L4.5,6 L4,6 L4,0.300033055 C4.01661459,0.317053949 4.03331812,0.333966738 4.05011001,0.350770504 L4.5,3.5 Z M11.5,3.5 L11.5,6 L11.5,6 L11.1428571,6 L11.5,3.5 Z M0.5,5.86718431 L0.5,1.68220488 C0.318453028,1.8642375 0.151419275,2.05325792 -2.27373675e-13,2.24853196 L-6.43929354e-15,5.00245535 C-6.43929354e-15,5.37214347 0.200207245,5.6948619 0.5,5.86718431 L0.5,5.86718431 Z M1.5,6 L1.5,0.850020844 C1.32559037,0.971398423 1.15875496,1.0976519 1,1.22844377 L1,5.99999963 C1.00029052,5.99999988 1.00058108,6 1.00087166,6 L1.5,6 L1.5,6 Z M2.5,6 L2.5,0.250365174 C2.32829552,0.338864386 2.16152169,0.43140977 2,0.527786985 L2,6 L2.5,6 L2.5,6 Z M3.5,6 L3.5,-0.197306828 C3.32972834,-0.131642269 3.16298308,-0.0623655952 3,0.0103660244 L3,6 L3.5,6 L3.5,6 Z M12.5,6 L12.5,-0.197306828 C12.4836809,-0.203600234 12.4673293,-0.20986046 12.4509456,-0.216087369 C12.3090589,-0.0347322992 12.1585805,0.137574533 12,0.300033055 L12,6 L12.5,6 L12.5,6 Z M13.5,6 L13.5,0.250365174 C13.3376507,0.166687787 13.1708935,0.0866276774 13,0.0103660244 L13,6 L13.5,6 L13.5,6 Z M14.5,6 L14.5,0.850020844 C14.3396077,0.738398422 14.1728098,0.630899639 14,0.527786985 L14,6 L14.5,6 L14.5,6 Z M15.5,5.86636157 L15.5,1.68220488 C15.343838,1.52562516 15.1769377,1.3742157 15,1.22844377 L15,5.99999963 C15.1821554,5.999845 15.3529212,5.95122433 15.5,5.86636157 L15.5,5.86636157 Z" id="path-10"></path>
        <path id="path-12" d="M13.2739258,12.3554687 L12.5,13 L12.5,14 L15,14 L15,13 L13.2739258,12.3554687 Z"></path>
        <radialGradient cx="50%" cy="0%" fx="50%" fy="0%" r="87.4900351%" id="radialGradient-13">
            <stop stop-color="#6D22D6" offset="0%"></stop>
            <stop stop-color="#512DBD" stop-opacity="0" offset="100%"></stop>
        </radialGradient>
    </defs>
    <g id="Page-1" stroke="none" stroke-width="1" fill="none" fill-rule="evenodd" sketch:type="MSPage">
        <g id="People---Avatars" sketch:type="MSLayerGroup" transform="translate(-152.000000, 0.000000)">
            <g id="Angel-Investor-Avatar" transform="translate(152.000000, 0.000000)">
                <mask id="mask-2" sketch:name="Mask" fill="white">
                    <use xlink:href="#path-1"></use>
                </mask>
                <g id="Mask"></g>
                <g id="Halo" mask="url(#mask-2)" stroke="#FFD714" sketch:type="MSShapeGroup">
                    <g transform="translate(2.000000, 0.000000)">
                        <ellipse id="Halo" stroke-width="0.2" filter="url(#filter-3)" cx="6" cy="2.70000076" rx="6" ry="2.5"></ellipse>
                        <ellipse id="Halo-2" stroke-width="0.5" cx="6" cy="2.70000076" rx="6" ry="2.5"></ellipse>
                    </g>
                </g>
                <g id="Investor" mask="url(#mask-2)">
                    <g transform="translate(0.000000, 1.000000)">
                        <g id="Shirt" stroke-width="1" fill="none" sketch:type="MSLayerGroup" transform="translate(3.000000, 9.000000)">
                            <mask id="mask-5" sketch:name="Mask" fill="white">
                                <use xlink:href="#path-4"></use>
                            </mask>
                            <use id="Mask" sketch:type="MSShapeGroup" xlink:href="#path-4"></use>
                            <path d="M9.45094563,9.23760262e-16 C8.50000022,1.04006167 6.83076152,1.5 5,1.5 C3.16923848,1.5 1.5,1.04006159 0.549054369,0 L0.5,7 L9.5,7 L9.45094563,9.23760262e-16 Z" fill="#FDFDFD" sketch:type="MSShapeGroup" mask="url(#mask-5)"></path>
                        </g>
                        <g id="Tie">
                            <use fill="#6D22D6" sketch:type="MSShapeGroup" xlink:href="#path-7"></use>
                            <use fill-opacity="0.300000012" fill="url(#linearGradient-6)" xlink:href="#path-7"></use>
                        </g>
                        <path d="M8,10.5 L6,12 L4,9.5 L8,10.5 Z M8,10.5 L10,12 L12,9.5 L8,10.5 Z" id="Collar" fill="#DAD8CF" sketch:type="MSShapeGroup"></path>
                        <g id="Suitjacket" stroke-width="1" fill="none" sketch:type="MSLayerGroup" transform="translate(0.000000, 9.000000)">
                            <mask id="mask-9" sketch:name="Shoulders" fill="white">
                                <use xlink:href="#path-8"></use>
                            </mask>
                            <use id="Shoulders" fill="#666666" sketch:type="MSShapeGroup" xlink:href="#path-8"></use>
                            <mask id="mask-11" sketch:name="Pinstripes" fill="white">
                                <use xlink:href="#path-10"></use>
                            </mask>
                            <use id="Pinstripes" fill="#4C4C4C" sketch:type="MSShapeGroup" xlink:href="#path-10"></use>
                        </g>
                        <g id="Pocket-Square">
                            <use fill="#FFAF00" sketch:type="MSShapeGroup" xlink:href="#path-12"></use>
                            <use fill-opacity="0.300000012" fill="url(#linearGradient-6)" xlink:href="#path-12"></use>
                        </g>
                        <g id="Face" stroke-width="1" fill="none" sketch:type="MSLayerGroup" transform="translate(4.000000, 0.000000)">
                            <g id="Person-Face" sketch:type="MSShapeGroup">
                                <path d="M4,10 C6.34033203,10 8,7.762 8,5 C8,2.238 8,0 4,0 C0,0 0,2.238 0,5 C0,7.762 1.65966797,10 4,10 Z" id="Outer-Frame" fill-opacity="0.65" fill="#D9D9D9"></path>
                                <path d="M4,1 C6.66961542,1 7,1.59783089 7,5 C7,7.31386274 5.68154504,9 4,9 C2.31845496,9 1,7.31386274 1,5 C1,1.59783089 1.33038458,1 4,1 Z" id="Inner-Fill" fill="#FCFCFC"></path>
                            </g>
                            <path d="M4,10 C6.34033203,10 8,7.762 8,5 C8,2.238 8,0 4,0 C0,0 0,2.238 0,5 C0,7.762 1.65966797,10 4,10 Z M4,1 C6.66961542,1 7,1.59783089 7,5 C7,7.31386274 5.68154504,9 4,9 C2.31845496,9 1,7.31386274 1,5 C1,1.59783089 1.33038458,1 4,1 Z" id="Face-Glow" fill="url(#radialGradient-13)" sketch:type="MSShapeGroup"></path>
                            <g id="Dollar-Sign" transform="translate(2.000000, 2.000000)" sketch:type="MSShapeGroup">
                                <path d="M2,0.375 L2,0.75" id="Line-Top" stroke="#6D22D6" stroke-linecap="square"></path>
                                <path d="M2,5.19726562 L2,5.578125" id="Line-Bottom" stroke="#6D22D6" stroke-linecap="square"></path>
                                <path d="M2.8874784,4.07249099 C2.8874784,3.89896247 2.82192417,3.75952201 2.69081374,3.65416541 C2.55970331,3.54880882 2.32998806,3.44965116 2.0016611,3.35668945 C1.42874156,3.20175328 0.995753105,3.01789845 0.70268273,2.80511944 C0.409612354,2.59234043 0.263079364,2.3010648 0.263079364,1.9312838 C0.263079364,1.56150281 0.431096514,1.25938181 0.767135855,1.02491173 C1.1031752,0.790441661 1.53230752,0.673208383 2.05454571,0.673208383 C2.58339451,0.673208383 3.01417946,0.804902154 3.3469135,1.06829364 C3.67964753,1.33168514 3.8405033,1.65652977 3.82948561,2.04283729 L3.82287504,2.06142954 L2.8874784,2.06142954 C2.8874784,1.85278216 2.81311016,1.68390427 2.66437143,1.55479079 C2.51563271,1.42567731 2.30685074,1.36112154 2.03801927,1.36112154 C1.78020548,1.36112154 1.5807884,1.41483194 1.43976206,1.52225436 C1.29873571,1.62967677 1.2282236,1.76705145 1.2282236,1.93438251 C1.2282236,2.08725287 1.30369359,2.21274928 1.45463585,2.31087553 C1.60557812,2.40900177 1.86614242,2.51280745 2.23633658,2.62229567 C2.76738891,2.76070532 3.16952832,2.94352726 3.44276686,3.17076698 C3.71600541,3.3980067 3.85262263,3.69651257 3.85262263,4.06629357 C3.85262263,4.45260109 3.69011424,4.75730432 3.36509259,4.98041241 C3.04007093,5.2035205 2.6109386,5.31507287 2.07768273,5.31507287 C1.55324101,5.31507287 1.09601401,5.18854356 0.705988018,4.93548114 C0.31596203,4.68241873 0.12646072,4.32762022 0.137478403,3.87107497 L0.14408898,3.85248272 L1.0827909,3.85248272 C1.0827909,4.12103875 1.17038017,4.31780474 1.34556134,4.44278658 C1.5207425,4.56776843 1.76478052,4.63025841 2.07768273,4.63025841 C2.33990359,4.63025841 2.54042242,4.57964669 2.67924523,4.47842172 C2.81806804,4.37719676 2.8874784,4.24188787 2.8874784,4.07249099 L2.8874784,4.07249099 Z" id="S" fill="#6D22D7"></path>
                            </g>
                        </g>
                    </g>
                </g>
            </g>
        </g>
    </g>
</svg>