<?xml version="1.0" encoding="UTF-8" standalone="no"?>
<svg width="16px" height="16px" viewBox="0 0 16 16" version="1.1" xmlns="http://www.w3.org/2000/svg" xmlns:xlink="http://www.w3.org/1999/xlink" xmlns:sketch="http://www.bohemiancoding.com/sketch/ns">
    <!-- Generator: Sketch 3.0.1 (7597) - http://www.bohemiancoding.com/sketch -->
    <title>wr-icon-vc</title>
    <description>Created with Sketch.</description>
    <defs>
        <rect id="path-1" x="0" y="0" width="16" height="16"></rect>
        <path id="path-3" d="M0,0.375 C0.686818762,2.8935 3.04151355,4.7655 5.87611607,4.854 C5.18929731,2.3355 2.83460252,0.4635 0,0.375 Z"></path>
        <path id="path-5" d="M0.321428571,7.5 C0.186303335,7.02105263 0.321428571,6.52255639 0.321428571,6.00526316 C0.321428571,2.74887218 3.1764673,0.104511278 6.7386338,0 C6.953342,4.75037594 3.88359507,7.39548872 0.321428571,7.5 Z"></path>
    </defs>
    <g id="Page-1" stroke="none" stroke-width="1" fill="none" fill-rule="evenodd" sketch:type="MSPage">
        <g id="Organizations" sketch:type="MSLayerGroup" transform="translate(-32.000000, 0.000000)">
            <g id="Venture-Capital" transform="translate(32.000000, 0.000000)">
                <mask id="mask-2" sketch:name="Mask" fill="white">
                    <use xlink:href="#path-1"></use>
                </mask>
                <g id="Mask"></g>
                <path d="M7,7 L7,13" id="Stem" stroke="#00D779" sketch:type="MSShapeGroup" mask="url(#mask-2)"></path>
                <g id="Cash" mask="url(#mask-2)">
                    <g transform="translate(8.000000, 10.000000) scale(-1, 1) translate(-8.000000, -10.000000) translate(0.000000, 5.000000)">
                        <g id="Coin-Back" transform="translate(2.000000, 0.000000)">
                            <path d="M6,2.5 C6,3.32842712 4.65685425,4 3,4 C1.34314575,4 0,3.32842712 0,2.5 L0,1.5 L0.763893493,1.5 C1.31321405,1.19312532 2.11150019,1 3,1 C3.88849981,1 4.68678595,1.19312532 5.23610651,1.5 L6,1.5 L6,2.5 Z" id="Oval-14" fill="#AB8C01" sketch:type="MSShapeGroup"></path>
                            <ellipse id="Oval-7" fill="#F8CC00" sketch:type="MSShapeGroup" cx="3" cy="1.5" rx="3" ry="1.5"></ellipse>
                        </g>
                        <g id="Coin-Left" transform="translate(12.000000, 3.000000)">
                            <path d="M4,2 C4,2.55228475 3.1045695,3 2,3 C0.8954305,3 0,2.55228475 0,2 L0,1 L4,1 L4,2 Z" id="Oval-14" fill="#AB8C01" sketch:type="MSShapeGroup"></path>
                            <ellipse id="Oval-7" fill="#F0C400" sketch:type="MSShapeGroup" cx="2" cy="1" rx="2" ry="1"></ellipse>
                        </g>
                        <g id="Coin-Right" transform="translate(0.000000, 4.000000)">
                            <path d="M4,2 C4,2.55228475 3.1045695,3 2,3 C0.8954305,3 0,2.55228475 0,2 L0,1 L4,1 L4,2 Z" id="Oval-14" fill="#AB8C01" sketch:type="MSShapeGroup"></path>
                            <ellipse id="Oval-7" fill="#F0C400" sketch:type="MSShapeGroup" cx="2" cy="1" rx="2" ry="1"></ellipse>
                        </g>
                        <g id="Big-Coin-Front" transform="translate(5.000000, 5.000000)">
                            <path d="M8,3 C8,4.1045695 6.209139,5 4,5 C1.790861,5 0,4.1045695 0,3 L0,2 L0.535128781,2 C1.22674762,1.40219863 2.51943529,1 4,1 C5.48056471,1 6.77325238,1.40219863 7.46487122,2 L8,2 L8,3 Z" id="Oval-14" fill="#AB8C01" sketch:type="MSShapeGroup"></path>
                            <ellipse id="Oval-7" fill="#F8CC00" sketch:type="MSShapeGroup" cx="4" cy="2" rx="4" ry="2"></ellipse>
                        </g>
                    </g>
                </g>
                <g id="Leaves" mask="url(#mask-2)">
                    <g transform="translate(1.000000, 0.000000)">
                        <g id="Small-Leaf-2" transform="translate(0.000000, 3.750000)">
                            <mask id="mask-4" sketch:name="Leaf" fill="white">
                                <use xlink:href="#path-3"></use>
                            </mask>
                            <use id="Leaf" fill="#00C972" sketch:type="MSShapeGroup" xlink:href="#path-3"></use>
                            <path d="M2.28381837,2.11581355 L5.87611607,4.854" id="Vein" stroke="#00EE87" stroke-width="0.5" sketch:type="MSShapeGroup" mask="url(#mask-4)"></path>
                        </g>
                        <g id="Big-Leaf-2" transform="translate(5.250000, 0.000000)">
                            <mask id="mask-6" sketch:name="Leaf" fill="white">
                                <use xlink:href="#path-5"></use>
                            </mask>
                            <use id="Leaf" fill="#00C972" sketch:type="MSShapeGroup" xlink:href="#path-5"></use>
                            <path d="M0.321428571,7.503 C0.321428571,7.503 2.74557966,4.37730829 4.17194091,2.81446244" id="Vein" stroke="#00EE87" stroke-width="0.5" fill="#00C972" sketch:type="MSShapeGroup" mask="url(#mask-6)"></path>
                        </g>
                    </g>
                </g>
            </g>
        </g>
    </g>
</svg>