<?xml version="1.0" encoding="UTF-8" standalone="no"?>
<svg width="16px" height="16px" viewBox="0 0 16 16" version="1.1" xmlns="http://www.w3.org/2000/svg" xmlns:xlink="http://www.w3.org/1999/xlink" xmlns:sketch="http://www.bohemiancoding.com/sketch/ns">
    <!-- Generator: Sketch 3.0.1 (7597) - http://www.bohemiancoding.com/sketch -->
    <title>wr-icon-connectivity</title>
    <description>Created with Sketch.</description>
    <defs>
        <rect id="path-1" x="0" y="0" width="16" height="16"></rect>
    </defs>
    <g id="Page-1" stroke="none" stroke-width="1" fill="none" fill-rule="evenodd" sketch:type="MSPage">
        <g id="Ideas/Resources" sketch:type="MSLayerGroup" transform="translate(-96.000000, 0.000000)">
            <g id="Connectivity" transform="translate(96.000000, 0.000000)">
                <mask id="mask-2" sketch:name="Mask" fill="white">
                    <use xlink:href="#path-1"></use>
                </mask>
                <g id="Mask"></g>
                <path d="M12.5,3.5 L3.5,12.5 L14.5,8 L3.5,3.5 L8,14.5 L8,1.5 L12.5,12.5 L1.5,8 L14,8" id="Lines" stroke="#B3B3B3" stroke-width="0.5" opacity="0.4" sketch:type="MSShapeGroup" mask="url(#mask-2)"></path>
                <g id="Community-Middle" mask="url(#mask-2)" sketch:type="MSShapeGroup">
                    <path d="M3.54274658,5.14274658 C4.42640218,5.14274658 5.14274658,4.42640218 5.14274658,3.54274658 C5.14274658,2.65909098 4.42640218,1.94274658 3.54274658,1.94274658 C2.65909098,1.94274658 1.94274658,2.65909098 1.94274658,3.54274658 C1.94274658,4.42640218 2.65909098,5.14274658 3.54274658,5.14274658 L3.54274658,5.14274658 Z" id="Path" fill="#AF1639" transform="translate(3.542747, 3.542747) rotate(315.000000) translate(-3.542747, -3.542747) "></path>
                    <path d="M1.6,9.6 C2.4836556,9.6 3.2,8.8836556 3.2,8 C3.2,7.1163444 2.4836556,6.4 1.6,6.4 C0.7163444,6.4 0,7.1163444 0,8 C0,8.8836556 0.7163444,9.6 1.6,9.6 L1.6,9.6 Z" id="Path" fill="#FFAF00" transform="translate(1.600000, 8.000000) rotate(270.000000) translate(-1.600000, -8.000000) "></path>
                    <path d="M3.54274658,14.1027441 C4.42640218,14.1027441 5.14274658,13.3863997 5.14274658,12.5027441 C5.14274658,11.6190885 4.42640218,10.9027441 3.54274658,10.9027441 C2.65909098,10.9027441 1.94274658,11.6190885 1.94274658,12.5027441 C1.94274658,13.3863997 2.65909098,14.1027441 3.54274658,14.1027441 L3.54274658,14.1027441 Z" id="Path" fill="#00D679" transform="translate(3.542747, 12.502744) rotate(225.000000) translate(-3.542747, -12.502744) "></path>
                    <path d="M8,16 C8.8836556,16 9.6,15.2836556 9.6,14.4 C9.6,13.5163444 8.8836556,12.8 8,12.8 C7.1163444,12.8 6.4,13.5163444 6.4,14.4 C6.4,15.2836556 7.1163444,16 8,16 L8,16 Z" id="Path" fill="#4095C5" transform="translate(8.000000, 14.400000) rotate(180.000000) translate(-8.000000, -14.400000) "></path>
                    <path d="M12.5027319,14.1027441 C13.3863875,14.1027441 14.1027319,13.3863997 14.1027319,12.5027441 C14.1027319,11.6190885 13.3863875,10.9027441 12.5027319,10.9027441 C11.6190763,10.9027441 10.9027319,11.6190885 10.9027319,12.5027441 C10.9027319,13.3863997 11.6190763,14.1027441 12.5027319,14.1027441 L12.5027319,14.1027441 Z" id="Path" fill="#FF769F" transform="translate(12.502732, 12.502744) rotate(135.000000) translate(-12.502732, -12.502744) "></path>
                    <path d="M14.4,9.6 C15.2836556,9.6 16,8.8836556 16,8 C16,7.1163444 15.2836556,6.4 14.4,6.4 C13.5163444,6.4 12.8,7.1163444 12.8,8 C12.8,8.8836556 13.5163444,9.6 14.4,9.6 L14.4,9.6 Z" id="Path" fill="#6D22D7" transform="translate(14.400000, 8.000000) rotate(90.000000) translate(-14.400000, -8.000000) "></path>
                    <path d="M12.5027319,5.14274658 C13.3863875,5.14274658 14.1027319,4.42640218 14.1027319,3.54274658 C14.1027319,2.65909098 13.3863875,1.94274658 12.5027319,1.94274658 C11.6190763,1.94274658 10.9027319,2.65909098 10.9027319,3.54274658 C10.9027319,4.42640218 11.6190763,5.14274658 12.5027319,5.14274658 L12.5027319,5.14274658 Z" id="Path" fill="#FFAF00" transform="translate(12.502732, 3.542747) rotate(45.000000) translate(-12.502732, -3.542747) "></path>
                    <path d="M8,3.2 C8.8836556,3.2 9.6,2.4836556 9.6,1.6 C9.6,0.7163444 8.8836556,0 8,0 C7.1163444,0 6.4,0.7163444 6.4,1.6 C6.4,2.4836556 7.1163444,3.2 8,3.2 L8,3.2 Z" id="Path" fill="#00D679"></path>
                </g>
            </g>
        </g>
    </g>
</svg>