<?xml version="1.0" encoding="UTF-8" standalone="no"?>
<svg width="16px" height="16px" viewBox="0 0 16 16" version="1.1" xmlns="http://www.w3.org/2000/svg" xmlns:xlink="http://www.w3.org/1999/xlink" xmlns:sketch="http://www.bohemiancoding.com/sketch/ns">
    <!-- Generator: Sketch 3.0.1 (7597) - http://www.bohemiancoding.com/sketch -->
    <title>wr-icon-incubator</title>
    <description>Created with Sketch.</description>
    <defs>
        <rect id="path-1" x="0" y="0" width="16" height="16"></rect>
        <path d="M15.4859795,13.7528524 L11,5.77777778 L11,0.5 L5,0.5 L5,5.77777778 L0.514020536,13.7528524 C2.56625555,14.8462644 5.16861167,15.5 8,15.5 C10.8313883,15.5 13.4337444,14.8462644 15.4859795,13.7528524 Z" id="path-3"></path>
    </defs>
    <g id="Page-1" stroke="none" stroke-width="1" fill="none" fill-rule="evenodd" sketch:type="MSPage">
        <g id="Organizations" sketch:type="MSLayerGroup" transform="translate(-64.000000, 0.000000)">
            <g id="Accelerator-Incubator" transform="translate(64.000000, 0.000000)">
                <mask id="mask-2" sketch:name="Mask" fill="white">
                    <use xlink:href="#path-1"></use>
                </mask>
                <g id="Mask"></g>
                <g id="Bubbling-Beaker" mask="url(#mask-2)">
                    <mask id="mask-4" sketch:name="Beaker" fill="white">
                        <use xlink:href="#path-3"></use>
                    </mask>
                    <use id="Beaker" stroke="#CCCCCC" opacity="0.8" fill="#FFFFFF" sketch:type="MSShapeGroup" xlink:href="#path-3"></use>
                    <path d="M14,11 L16,11 L16,16 L0,16 L0,11 L2,11 L2,10.6296395 C3.59226948,9.61622095 5.69493669,9 8,9 C10.3050633,9 12.4077305,9.61622095 14,10.6296395 L14,11 Z" id="Liquid" fill="#00EE87" sketch:type="MSShapeGroup" mask="url(#mask-4)"></path>
                    <path d="M8,11.5 C5.69493669,11.5 3.59226948,10.8837791 2,9.87036055 L2,9.12963945 C3.59226948,8.11622095 5.69493669,7.5 8,7.5 C10.3050633,7.5 12.4077305,8.11622095 14,9.12963945 L14,9.87036055 C12.4077305,10.8837791 10.3050633,11.5 8,11.5 Z" id="Surface-2" fill="#00CF75" sketch:type="MSShapeGroup" mask="url(#mask-4)"></path>
                    <path d="M9,10 C9.82842712,10 10.5,9.32842712 10.5,8.5 C10.5,7.67157288 9.82842712,7 9,7 C8.17157288,7 7.5,7.67157288 7.5,8.5 C7.5,9.32842712 8.17157288,10 9,10 Z M7.5,6 C8.05228475,6 8.5,5.55228475 8.5,5 C8.5,4.44771525 8.05228475,4 7.5,4 C6.94771525,4 6.5,4.44771525 6.5,5 C6.5,5.55228475 6.94771525,6 7.5,6 Z" id="Bubbles" fill="#00EE87" sketch:type="MSShapeGroup" mask="url(#mask-4)"></path>
                </g>
            </g>
        </g>
    </g>
</svg>