<?xml version="1.0" encoding="UTF-8" standalone="no"?>
<svg width="16px" height="16px" viewBox="0 0 16 16" version="1.1" xmlns="http://www.w3.org/2000/svg" xmlns:xlink="http://www.w3.org/1999/xlink" xmlns:sketch="http://www.bohemiancoding.com/sketch/ns">
    <!-- Generator: Sketch 3.0.1 (7597) - http://www.bohemiancoding.com/sketch -->
    <title>wr-icon-funding</title>
    <description>Created with Sketch.</description>
    <defs>
        <rect id="path-1" x="0" y="0" width="16" height="16"></rect>
        <radialGradient cx="50%" cy="64.1865495%" fx="50%" fy="64.1865495%" r="100%" id="radialGradient-3">
            <stop stop-color="#FFFFFF" stop-opacity="0.5" offset="0%"></stop>
            <stop stop-color="#000000" stop-opacity="0.5" offset="100%"></stop>
        </radialGradient>
        <path d="M6.34441936,4.08377285 C-1.02727131,8.09694155 -2.94056766,15.0067896 5.5573852,15.9776 L7.4423852,15.9776 C15.9010068,15.0113087 14.0448587,8.16114414 6.75795019,4.14000468 L8.99988532,1.70986688 L5.49988521,9.64800506e-09 C4.95120907,0.781873631 5.94492933,3.19232934 6.34441936,4.08377285 Z" id="path-4"></path>
    </defs>
    <g id="Page-1" stroke="none" stroke-width="1" fill="none" fill-rule="evenodd" sketch:type="MSPage">
        <g id="Money" sketch:type="MSLayerGroup">
            <g id="Funding">
                <mask id="mask-2" sketch:name="Mask" fill="white">
                    <use xlink:href="#path-1"></use>
                </mask>
                <g id="Mask"></g>
                <g id="Moneybag" mask="url(#mask-2)">
                    <g transform="translate(1.000000, 0.000000)">
                        <ellipse id="Shadow" opacity="0.3" fill="#000000" sketch:type="MSShapeGroup" cx="8.5" cy="14.5" rx="6.5" ry="1.5"></ellipse>
                        <g id="Moneybag">
                            <use fill="#00A357" sketch:type="MSShapeGroup" xlink:href="#path-4"></use>
                            <use fill-opacity="0.8" fill="url(#radialGradient-3)" xlink:href="#path-4"></use>
                        </g>
                    </g>
                </g>
                <g id="Dollar-Sign" mask="url(#mask-2)" sketch:type="MSShapeGroup">
                    <g transform="translate(5.000000, 6.500000)">
                        <path d="M2.5,0.5 L2.5,1" id="Line" stroke="#FFFFFF" stroke-width="1" stroke-linecap="square" fill="none"></path>
                        <path d="M2.5,6.9296875 L2.5,7.4375" id="Line-18" stroke="#FFFFFF" stroke-width="1" stroke-linecap="square" fill="none"></path>
                        <path d="M3.609348,5.42998798 C3.609348,5.19861663 3.52740521,5.01269601 3.36351717,4.87222055 C3.19962914,4.73174509 2.91248507,4.59953487 2.50207637,4.47558594 C1.78592696,4.26900438 1.24469138,4.0238646 0.878353412,3.74015925 C0.512015443,3.45645391 0.328849206,3.0680864 0.328849206,2.57504507 C0.328849206,2.08200374 0.538870643,1.67917574 0.958919819,1.36654898 C1.37896899,1.05392221 1.9153844,0.897611178 2.56818214,0.897611178 C3.22924314,0.897611178 3.76772433,1.07320287 4.18364187,1.42439153 C4.59955942,1.77558018 4.80062912,2.20870636 4.78685702,2.72378305 L4.7785938,2.74857272 L3.609348,2.74857272 C3.609348,2.47037621 3.5163877,2.24520569 3.33046429,2.07305439 C3.14454088,1.90090309 2.88356343,1.81482873 2.54752409,1.81482873 C2.22525685,1.81482873 1.9759855,1.88644259 1.79970257,2.02967248 C1.62341964,2.17290236 1.53527949,2.3560686 1.53527949,2.57917668 C1.53527949,2.78300382 1.62961699,2.95033238 1.81829482,3.08116737 C2.00697264,3.21200236 2.33267802,3.35040993 2.79542072,3.49639423 C3.45923614,3.68094043 3.9619104,3.92470301 4.30345858,4.2276893 C4.64500676,4.53067559 4.81577829,4.92868343 4.81577829,5.42172476 C4.81577829,5.93680145 4.6126428,6.34307243 4.20636573,6.64054988 C3.80008866,6.93802733 3.26367325,7.08676382 2.59710341,7.08676382 C1.94155126,7.08676382 1.37001751,6.91805808 0.882485023,6.58064153 C0.394952537,6.24322498 0.1580759,5.7701603 0.171848004,5.16143329 L0.180111225,5.13664363 L1.35348863,5.13664363 C1.35348863,5.49471834 1.46297521,5.75707298 1.68195167,5.92371544 C1.90092813,6.0903579 2.20597566,6.17367788 2.59710341,6.17367788 C2.92487949,6.17367788 3.17552803,6.10619559 3.34905654,5.97122897 C3.52258505,5.83626235 3.609348,5.65585049 3.609348,5.42998798 L3.609348,5.42998798 Z" id="S" stroke="none" fill="#FFFFFF" fill-rule="evenodd"></path>
                    </g>
                </g>
            </g>
        </g>
    </g>
</svg>