<?xml version="1.0" encoding="UTF-8" standalone="no"?>
<svg width="16px" height="16px" viewBox="0 0 16 16" version="1.1" xmlns="http://www.w3.org/2000/svg" xmlns:xlink="http://www.w3.org/1999/xlink" xmlns:sketch="http://www.bohemiancoding.com/sketch/ns">
    <!-- Generator: Sketch 3.0.1 (7597) - http://www.bohemiancoding.com/sketch -->
    <title>wr-icon-investor</title>
    <description>Created with Sketch.</description>
    <defs>
        <rect id="path-1" x="0" y="0" width="16" height="16"></rect>
        <path d="M7.96567715,0.641097282 C7.58700185,0.215392431 6.59068138,0 5.00245097,0 L4.99754903,0 C3.40931862,0 2.41299815,0.215392431 2.03432285,0.641097282 C1.79045105,0.916433833 1.89584288,1.16535433 1.90809774,1.19278639 C1.91422518,1.20294641 1.92035261,1.21209042 1.92648004,1.22225044 L3.84926825,3.81915164 C3.87990541,3.86080772 3.93137584,3.89230378 3.99142467,3.90449581 C4.31985503,3.96850394 4.66054026,4 5,4 C5.33945974,4 5.68014497,3.96850394 6.00857533,3.90449581 C6.06862416,3.89230378 6.12009459,3.86080772 6.15073175,3.81915164 L8.07351996,1.22225044 C8.07964739,1.21209042 8.08577482,1.20294641 8.09190226,1.19278639 C8.10415712,1.16535433 8.20954895,0.916433833 7.96567715,0.641097282 M3.75,4.5 L0.223349333,11.5533013 C0.0999969024,11.8000062 0.190584244,12.1139402 0.427832316,12.2557783 L4.59017306,14.7442217 C4.82645832,14.8854841 5.20722192,14.8860598 5.44276743,14.7442217 L9.57523794,12.2557783 C9.80982755,12.1145159 9.89969656,11.7993931 9.77665067,11.5533013 C9.77665067,11.5533013 6.25000013,4.5 6.25,4.5 C5.62500013,4.69999695 4.37500013,4.69999695 3.75,4.5 Z" id="path-3"></path>
        <rect id="path-5" x="6" y="9" width="3.5" height="1"></rect>
    </defs>
    <g id="Page-1" stroke="none" stroke-width="1" fill="none" fill-rule="evenodd" sketch:type="MSPage">
        <g id="People" sketch:type="MSLayerGroup" transform="translate(-128.000000, 0.000000)">
            <g id="Investor" transform="translate(128.000000, 0.000000)">
                <mask id="mask-2" sketch:name="Mask" fill="white">
                    <use xlink:href="#path-1"></use>
                </mask>
                <g id="Mask"></g>
                <g id="Tie" mask="url(#mask-2)">
                    <g transform="translate(3.000000, 0.000000)">
                        <g id="Tie" stroke-width="1" fill="none" sketch:type="MSLayerGroup" transform="translate(0.000000, 0.500000)">
                            <path d="M7.96567715,0.641097282 C7.58700185,0.215392431 6.59068138,0 5.00245097,0 L4.99754903,0 C3.40931862,0 2.41299815,0.215392431 2.03432285,0.641097282 C1.79045105,0.916433833 1.89584288,1.16535433 1.90809774,1.19278639 C1.91422518,1.20294641 1.92035261,1.21209042 1.92648004,1.22225044 L3.84926825,3.81915164 C3.87990541,3.86080772 3.93137584,3.89230378 3.99142467,3.90449581 C4.31985503,3.96850394 4.66054026,4 5,4 C5.33945974,4 5.68014497,3.96850394 6.00857533,3.90449581 C6.06862416,3.89230378 6.12009459,3.86080772 6.15073175,3.81915164 L8.07351996,1.22225044 C8.07964739,1.21209042 8.08577482,1.20294641 8.09190226,1.19278639 C8.10415712,1.16535433 8.20954895,0.916433833 7.96567715,0.641097282 M3.75,4.5 L0.223349333,11.5533013 C0.0999969024,11.8000062 0.190584244,12.1139402 0.427832316,12.2557783 L4.59017306,14.7442217 C4.82645832,14.8854841 5.20722192,14.8860598 5.44276743,14.7442217 L9.57523794,12.2557783 C9.80982755,12.1145159 9.89969656,11.7993931 9.77665067,11.5533013 C9.77665067,11.5533013 6.25000013,4.5 6.25,4.5 C5.62500013,4.69999695 4.37500013,4.69999695 3.75,4.5 Z" id="Tie-2" stroke-opacity="0.7" stroke="#FFFFFF" stroke-width="0.5" sketch:type="MSShapeGroup"></path>
                            <mask id="mask-4" sketch:name="Tie" fill="white">
                                <use xlink:href="#path-3"></use>
                            </mask>
                            <use fill="#6D22D7" sketch:type="MSShapeGroup" xlink:href="#path-3"></use>
                            <g id="Pinstripes" mask="url(#mask-4)" fill="#6D22D6" sketch:type="MSShapeGroup">
                                <g transform="translate(1.000000, 0.000000)">
                                    <path d="M0.5,9 L0,10 L0,12.5978471 L0.5,12.8967707 L0.5,9 L0.5,9 Z" id="Pinstripes"></path>
                                    <path d="M1.5,0.331856903 C1.29627204,0.418216195 1.14085531,0.521334025 1.03432285,0.641097282 C1.02201065,0.654998024 1.01058867,0.668831435 1,0.682572413 L1,1.32154587 L1.5,1.99684156 L1.5,0.331856903 L1.5,0.331856903 Z M1.5,7 L1,8 L1,13.1956942 L1.5,13.4946178 L1.5,7 L1.5,7 Z" id="Pinstripes-2"></path>
                                    <path d="M2.5,0.0853329831 C2.31841213,0.109895655 2.15171204,0.139745738 2,0.174863442 L2,2.67213726 L2.5,3.34743295 L2.5,0.0853329831 L2.5,0.0853329831 Z M2.5,5 L2,6 L2,13.7935413 L2.5,14.0924649 L2.5,5 L2.5,5 Z" id="Pinstripes-3"></path>
                                    <path d="M3.5,0.00764908379 C3.32473761,0.0132741776 3.15805607,0.0219991086 3,0.0338150722 L3,3.90615914 C3.16419725,3.93785642 3.33142432,3.96144017 3.49999997,3.97703708 L3.5,0.00764908379 L3.5,0.00764908379 Z M3,14.3913884 L3.5,14.690312 L3.5,4.63047443 C3.32104464,4.6160767 3.15106744,4.5937156 3,4.56339115 L3,14.3913884 L3,14.3913884 Z" id="Pinstripes-4"></path>
                                    <path d="M4.5,0.00764908379 C4.34118515,0.00255187827 4.17532441,0 4.00245097,0 L4,0 L4,4 C4.16690452,4 4.33410529,3.99238595 4.50000003,3.97703708 L4.5,0.00764908379 L4.5,0.00764908379 Z M4,14.9892355 L4.01800537,15 L4.5,14.709758 L4.5,4.63047444 C4.33822471,4.64348996 4.16911236,4.64999771 4,4.64999771 L4,14.9892355 L4,14.9892355 Z" id="Pinstripes-5"></path>
                                    <path d="M5.5,0.0853329831 C5.34426291,0.0642670438 5.17757516,0.0470902449 5,0.0338150722 L5,3.90615914 C5.00285936,3.90560716 5.00571781,3.90505271 5.00857533,3.90449581 C5.06862416,3.89230378 5.12009459,3.86080772 5.15073175,3.81915164 L5.5,3.34743295 L5.5,0.0853329831 L5.5,0.0853329831 Z M5,14.4086738 L5.5,14.1075896 L5.5,4.99999991 C5.34311528,4.68623048 5.25000002,4.5 5.25,4.5 C5.17495597,4.52401373 5.09090137,4.54514412 5,4.56339116 L5,14.4086738 L5,14.4086738 Z" id="Pinstripes-6"></path>
                                    <path d="M6.5,0.331856903 C6.35705226,0.27126205 6.19031961,0.218917871 6,0.174863442 L6,2.67213726 L6.5,1.99684156 L6.5,0.331856903 L6.5,0.331856903 Z M6,13.8065054 L6.5,13.5054211 L6.5,6.99999988 C6.32239895,6.64479777 6.15324558,6.30649103 6,5.99999988 L6,13.8065054 L6,13.8065054 Z" id="Pinstripes-7"></path>
                                    <path d="M7,1.32154587 L7.07351996,1.22225044 C7.07964739,1.21209042 7.08577482,1.20294641 7.09190226,1.19278639 C7.10353842,1.16673928 7.19914464,0.94100347 7,0.682572413 L7,1.32154587 L7,1.32154587 Z M7,13.2043369 L7.5,12.9032527 L7.5,8.99999991 C7.33556451,8.67112892 7.16711719,8.33423428 7,7.99999989 L7,13.2043369 L7,13.2043369 Z" id="Pinstripes-8"></path>
                                    <path d="M8,12.6021685 L8.5,12.3010842 L8.5,11 C8.35453948,10.7090789 8.18455986,10.3691197 8,9.99999994 L8,12.6021685 L8,12.6021685 Z" id="Pinstripes-9"></path>
                                </g>
                            </g>
                        </g>
                        <g id="Tie-Clip">
                            <use fill="#F8CC00" sketch:type="MSShapeGroup" xlink:href="#path-5"></use>
                            <use fill="#D8D8D8" xlink:href="#path-5"></use>
                        </g>
                    </g>
                </g>
            </g>
        </g>
    </g>
</svg>