<?xml version="1.0" encoding="UTF-8" standalone="no"?>
<svg width="16px" height="16px" viewBox="0 0 16 16" version="1.1" xmlns="http://www.w3.org/2000/svg" xmlns:xlink="http://www.w3.org/1999/xlink" xmlns:sketch="http://www.bohemiancoding.com/sketch/ns">
    <!-- Generator: Sketch 3.0.1 (7597) - http://www.bohemiancoding.com/sketch -->
    <title>wr-icon-federal</title>
    <description>Created with Sketch.</description>
    <defs>
        <rect id="path-1" x="0" y="0" width="16" height="16"></rect>
    </defs>
    <g id="Page-1" stroke="none" stroke-width="1" fill="none" fill-rule="evenodd" sketch:type="MSPage">
        <g id="Organizations" sketch:type="MSLayerGroup" transform="translate(-160.000000, 0.000000)">
            <g id="Federal-Government" transform="translate(160.000000, 0.000000)">
                <mask id="mask-2" sketch:name="Mask" fill="white">
                    <use xlink:href="#path-1"></use>
                </mask>
                <g id="Mask"></g>
                <g id="Canadian-Flag" mask="url(#mask-2)" sketch:type="MSShapeGroup">
                    <g transform="translate(0.000000, 4.000000)">
                        <path d="M0,0 L0,8 L4,8 L4,0 L0,0 Z M12,0 L12,8 L16,8 L16,0 L12,0 Z" id="Red-Fields" fill="#FF0000"></path>
                        <rect id="White-Field" fill="#FFFFFF" x="4" y="0" width="8" height="8"></rect>
                        <path d="M7.99987648,0.75 L7.45406656,1.76800464 C7.3921328,1.8786448 7.28116624,1.86838272 7.17019952,1.80658672 L6.77504768,1.60196944 L7.06956048,3.1656032 C7.13149424,3.45127024 6.93278304,3.45127024 6.83471808,3.3277528 L6.14510128,2.55573696 L6.0331432,2.94778496 C6.02023248,2.99926928 5.96346624,3.053344 5.87830352,3.04046672 L5.0062752,2.8571208 L5.23531904,3.6898368 C5.2843512,3.87512544 5.32259744,3.95184128 5.18581904,4.00071024 L4.875,4.14679424 L6.37614032,5.36612832 C6.43555632,5.41223248 6.46557568,5.49520032 6.4444232,5.57032192 L6.31304144,6.00147504 C6.82990624,5.94189568 7.29302512,5.85226 7.81015168,5.797056 C7.85580336,5.79218256 7.93222976,5.86752128 7.93191632,5.92042528 L7.86343248,7.5 L8.11473472,7.5 L8.0751768,5.9238128 C8.0748616,5.8709088 8.14419632,5.79218256 8.189848,5.797056 C8.70697456,5.85226016 9.17009408,5.94189568 9.68695872,6.00147504 L9.55557728,5.57032192 C9.5344248,5.49520032 9.564444,5.41223248 9.62386,5.36612832 L11.125,4.14679424 L10.8141813,4.00071024 C10.6774026,3.95184128 10.7156488,3.87512544 10.764681,3.6898368 L10.9937253,2.8571208 L10.1216965,3.04046672 C10.0365338,3.053344 9.97976752,2.99926928 9.96685648,2.94778496 L9.85489856,2.55573696 L9.16528208,3.3277528 C9.0672168,3.45127024 8.86850544,3.45127024 8.9304392,3.1656032 L9.22495152,1.60196944 L8.82980048,1.80658672 C8.71883104,1.86838272 8.6078672,1.8786448 8.54593328,1.76800464" id="Maple-Leaf" fill="#FF0000"></path>
                    </g>
                </g>
            </g>
        </g>
    </g>
</svg>