<?xml version="1.0" encoding="UTF-8" standalone="no"?>
<svg width="16px" height="16px" viewBox="0 0 16 16" version="1.1" xmlns="http://www.w3.org/2000/svg" xmlns:xlink="http://www.w3.org/1999/xlink" xmlns:sketch="http://www.bohemiancoding.com/sketch/ns">
    <!-- Generator: Sketch 3.0.1 (7597) - http://www.bohemiancoding.com/sketch -->
    <title>wr-icon-eastvan</title>
    <description>Created with Sketch.</description>
    <defs>
        <radialGradient cx="50%" cy="37.705485%" fx="50%" fy="37.705485%" r="132.15332%" id="radialGradient-1">
            <stop stop-color="#002942" offset="0%"></stop>
            <stop stop-color="#000000" offset="100%"></stop>
        </radialGradient>
        <rect id="path-2" x="0" y="0" width="16" height="16" rx="2"></rect>
        <filter x="-50%" y="-50%" width="200%" height="200%" filterUnits="objectBoundingBox" id="filter-4">
            <feMorphology radius="1" in="SourceAlpha" operator="dilate" result="shadowSpreadOuter1"></feMorphology>
            <feOffset dx="0" dy="0" in="shadowSpreadOuter1" result="shadowOffsetOuter1"></feOffset>
            <feGaussianBlur stdDeviation="0.5" in="shadowOffsetOuter1" result="shadowBlurOuter1"></feGaussianBlur>
            <feColorMatrix values="0 0 0 0 1   0 0 0 0 1   0 0 0 0 1  0 0 0 0.525 0" in="shadowBlurOuter1" type="matrix" result="shadowMatrixOuter1"></feColorMatrix>
            <feMerge>
                <feMergeNode in="shadowMatrixOuter1"></feMergeNode>
                <feMergeNode in="SourceGraphic"></feMergeNode>
            </feMerge>
        </filter>
        <filter x="-50%" y="-50%" width="200%" height="200%" filterUnits="objectBoundingBox" id="filter-5">
            <feMorphology radius="1" in="SourceAlpha" operator="dilate" result="shadowSpreadOuter1"></feMorphology>
            <feOffset dx="0" dy="0" in="shadowSpreadOuter1" result="shadowOffsetOuter1"></feOffset>
            <feGaussianBlur stdDeviation="0.5" in="shadowOffsetOuter1" result="shadowBlurOuter1"></feGaussianBlur>
            <feColorMatrix values="0 0 0 0 1   0 0 0 0 1   0 0 0 0 1  0 0 0 0.35 0" in="shadowBlurOuter1" type="matrix" result="shadowMatrixOuter1"></feColorMatrix>
            <feMerge>
                <feMergeNode in="shadowMatrixOuter1"></feMergeNode>
                <feMergeNode in="SourceGraphic"></feMergeNode>
            </feMerge>
        </filter>
    </defs>
    <g id="Page-1" stroke="none" stroke-width="1" fill="none" fill-rule="evenodd" sketch:type="MSPage">
        <g id="Places" sketch:type="MSLayerGroup">
            <g id="East-Van">
                <mask id="mask-3" sketch:name="Background/Mask" fill="white">
                    <use xlink:href="#path-2"></use>
                </mask>
                <use id="Background/Mask" fill="url(#radialGradient-1)" sketch:type="MSShapeGroup" xlink:href="#path-2"></use>
                <g id="East-Van-Cross" mask="url(#mask-3)" sketch:type="MSShapeGroup">
                    <g transform="translate(2.000000, 0.000000)">
                        <path d="M8.5,1 C8.5,0.723857625 8.27614237,0.5 8,0.5 L4,0.5 C3.72385763,0.5 3.5,0.723857625 3.5,1 L3.5,3.5 L1,3.5 C0.723857625,3.5 0.5,3.72385763 0.5,4 L0.5,8 C0.5,8.27614237 0.723857625,8.5 1,8.5 L3.5,8.5 L3.5,14 C3.5,14.2761424 3.72385763,14.5 4,14.5 L8,14.5 C8.27614237,14.5 8.5,14.2761424 8.5,14 L8.5,8.5 L11,8.5 C11.2761424,8.5 11.5,8.27614237 11.5,8 L11.5,4 C11.5,3.72385763 11.2761424,3.5 11,3.5 L8.5,3.5 L8.5,1 Z M8,1 L4,1 L4,4 L1,4 L1,8 L4,8 L4,14 L8,14 L8,8 L11,8 L11,4 L8,4 L8,1 Z" id="Cross-Glow" fill="#000000" filter="url(#filter-4)"></path>
                        <path d="M8.5,1 C8.5,0.723857625 8.27614237,0.5 8,0.5 L4,0.5 C3.72385763,0.5 3.5,0.723857625 3.5,1 L3.5,3.5 L1,3.5 C0.723857625,3.5 0.5,3.72385763 0.5,4 L0.5,8 C0.5,8.27614237 0.723857625,8.5 1,8.5 L3.5,8.5 L3.5,14 C3.5,14.2761424 3.72385763,14.5 4,14.5 L8,14.5 C8.27614237,14.5 8.5,14.2761424 8.5,14 L8.5,8.5 L11,8.5 C11.2761424,8.5 11.5,8.27614237 11.5,8 L11.5,4 C11.5,3.72385763 11.2761424,3.5 11,3.5 L8.5,3.5 L8.5,1 Z M8,1 L4,1 L4,4 L1,4 L1,8 L4,8 L4,14 L8,14 L8,8 L11,8 L11,4 L8,4 L8,1 Z" id="Cross" fill="#FFFFFF"></path>
                        <path d="M8,1 L4,1 L4,4 L1,4 L1,8 L4,8 L4,14 L8,14 L8,8 L11,8 L11,4 L8,4 L8,1 Z" id="Cross-Mask" fill-opacity="0.5" fill="#000000"></path>
                        <path d="M5,2 L5,4 L7,4 L7,2 L5,2 Z M5,7 L7,7 L6.5,5 L5.5,5 L5,7 Z M2,5 L2.5,7 L3.5,7 L4,5 L2,5 Z M6.5,8 L6.53574201,8.5 L7,9.01989746 L7,10 L5.5,10 L5.49781275,9.51454824 L5,9.0333252 L5,8 L6.5,8 Z M8,6.5 L8.5,6.53574201 L9.01989746,7 L10,7 L10,5.5 L9.51454824,5.49781275 L9.0333252,5 L8,5 L8,6.5 Z M5,11 L5,11.5 L5.5,11.5 L5.5,13 L6.5,13 L6.5,11.5 L7,11.5 L7,11 L5,11 Z M5.5,14 L5.5,16 L6.5,16 L6.5,14 L5.5,14 Z" id="Letter-Glow" fill="#000000" filter="url(#filter-5)"></path>
                        <path d="M5,2 L5,4 L7,4 L7,2 L5,2 Z M5,7 L7,7 L6.5,5 L5.5,5 L5,7 Z M2,5 L2.5,7 L3.5,7 L4,5 L2,5 Z M6.5,8 L6.53574201,8.5 L7,9.01989746 L7,10 L5.5,10 L5.49781275,9.51454824 L5,9.0333252 L5,8 L6.5,8 Z M8,6.5 L8.5,6.53574201 L9.01989746,7 L10,7 L10,5.5 L9.51454824,5.49781275 L9.0333252,5 L8,5 L8,6.5 Z M5,11 L5,11.5 L5.5,11.5 L5.5,13 L6.5,13 L6.5,11.5 L7,11.5 L7,11 L5,11 Z M5.5,14 L5.5,16 L6.5,16 L6.5,14 L5.5,14 Z" id="Letters" fill="#FFFFFF"></path>
                    </g>
                </g>
            </g>
        </g>
    </g>
</svg>