<?xml version="1.0" encoding="UTF-8" standalone="no"?>
<svg width="16px" height="16px" viewBox="0 0 16 16" version="1.1" xmlns="http://www.w3.org/2000/svg" xmlns:xlink="http://www.w3.org/1999/xlink" xmlns:sketch="http://www.bohemiancoding.com/sketch/ns">
    <!-- Generator: Sketch 3.0.1 (7597) - http://www.bohemiancoding.com/sketch -->
    <title>wr-icon-newbie</title>
    <description>Created with Sketch.</description>
    <defs>
        <rect id="path-1" x="0" y="0" width="16" height="16"></rect>
        <path id="path-3" d="M8,0 C1.99991803,0 0.499959014,2.5178188 0.124984631,6.10720961 C2.50638615,6.68234761 5.22005055,7 8.09090909,7 C10.8906998,7 13.5409826,6.69787987 15.8793711,6.14944783 C15.5117254,2.53758672 14.0235899,0 8,0 Z"></path>
        <path id="path-5" d="M15.5120706,4.17297672 C14.7604387,1.64575215 12.8509541,0 8,0 C3.17532189,0 1.26033364,1.62797148 0.500245622,4.13198708 C2.72109201,4.67694525 5.31251489,5 8.09090909,5 C10.7989143,5 13.3293019,4.6931067 15.5120706,4.17297672 L15.5120706,4.17297672 Z"></path>
    </defs>
    <g id="Page-1" stroke="none" stroke-width="1" fill="none" fill-rule="evenodd" sketch:type="MSPage">
        <g id="People" sketch:type="MSLayerGroup" transform="translate(-64.000000, 0.000000)">
            <g id="Newbie" transform="translate(64.000000, 0.000000)">
                <mask id="mask-2" sketch:name="Mask" fill="white">
                    <use xlink:href="#path-1"></use>
                </mask>
                <g id="Mask"></g>
                <g id="Beanie" mask="url(#mask-2)">
                    <g transform="translate(0.000000, 2.000000)">
                        <rect id="Stem" fill-opacity="0.5" fill="#00398C" sketch:type="MSShapeGroup" x="7.5" y="2.5" width="1" height="3.5" rx="1"></rect>
                        <circle id="Topper" fill="#5CC600" sketch:type="MSShapeGroup" cx="8" cy="0.5" r="0.5"></circle>
                        <g id="Hat" stroke-width="1" fill="none" sketch:type="MSLayerGroup" transform="translate(0.000000, 4.000000)">
                            <mask id="mask-4" sketch:name="Stripe" fill="white">
                                <use xlink:href="#path-3"></use>
                            </mask>
                            <use id="Stripe" fill="#00398C" sketch:type="MSShapeGroup" xlink:href="#path-3"></use>
                            <mask id="mask-6" sketch:name="Hat Mask" fill="white">
                                <use xlink:href="#path-5"></use>
                            </mask>
                            <use id="Hat-Mask" fill="#4095C5" sketch:type="MSShapeGroup" xlink:href="#path-5"></use>
                        </g>
                        <g id="Propellor-Blades" stroke-width="1" fill="none" sketch:type="MSLayerGroup" transform="translate(1.000000, 1.000000)">
                            <path d="M10.25,0 C8.86125132,0 7,1 7,1 C7,1 8.86125132,2 10.25,2 C11.6387487,2 13.5,0.5 13.5,0.5 C13.5,0.5 11.6387487,0 10.25,0 Z" id="Right-Blade" fill="#FF554F" sketch:type="MSShapeGroup"></path>
                            <path d="M3.71823768,1.77635684e-15 C5.10698636,1.77635684e-15 6.96823768,1 6.96823768,1 C6.96823768,1 5.10698636,2 3.71823768,2 C2.32948901,2 0.468237683,0.5 0.468237683,0.5 C0.468237683,0.5 2.32948901,1.77635684e-15 3.71823768,1.77635684e-15 Z" id="Left-Blade" fill="#14B6BC" sketch:type="MSShapeGroup"></path>
                        </g>
                    </g>
                </g>
            </g>
        </g>
    </g>
</svg>