<?xml version="1.0" encoding="UTF-8" standalone="no"?>
<svg width="16px" height="16px" viewBox="0 0 16 16" version="1.1" xmlns="http://www.w3.org/2000/svg" xmlns:xlink="http://www.w3.org/1999/xlink" xmlns:sketch="http://www.bohemiancoding.com/sketch/ns">
    <!-- Generator: Sketch 3.0.1 (7597) - http://www.bohemiancoding.com/sketch -->
    <title>wr-icon-advisor-av</title>
    <description>Created with Sketch.</description>
    <defs>
        <rect id="path-1" x="0" y="0" width="16" height="16"></rect>
        <path id="path-3" d="M16,2.24853196 L16,4.00245535 C16,4.5536886 15.5518945,5 14.9991283,5 L1.00087166,5 C0.444630861,5 -6.43929354e-15,4.55338405 -6.43929354e-15,4.00245535 L-2.27373675e-13,2.24853196 C0.800687443,1.21594562 2.03798241,0.358221283 3.54905437,-0.216087369 C4.61616051,1.14785363 5,4.00000003 8,4 C11,3.99999997 11.3838395,1.14785363 12.4509456,-0.216087369 C13.9620176,0.358221283 15.1993126,1.21594562 16,2.24853196 Z"></path>
        <radialGradient cx="50%" cy="0%" fx="50%" fy="0%" r="87.4900351%" id="radialGradient-5">
            <stop stop-color="#AF1639" offset="0%"></stop>
            <stop stop-color="#AF1639" stop-opacity="0" offset="100%"></stop>
        </radialGradient>
        <path d="M1.75,3.5 C2.44035594,3.5 3,2.94035594 3,2.25 C3,1.55964406 3.44035594,1 1.75,1 C0.0596440628,1 0.5,1.55964406 0.5,2.25 C0.5,2.94035594 1.05964406,3.5 1.75,3.5 Z M5.25,3.5 C5.94035594,3.5 6.5,2.94035594 6.5,2.25 C6.5,1.55964406 6.94035594,1 5.25,1 C3.55964406,1 4,1.55964406 4,2.25 C4,2.94035594 4.55964406,3.5 5.25,3.5 Z" id="path-6"></path>
        <rect id="path-7" x="0" y="0" width="7" height="2.5"></rect>
        <path d="M1.75,3.5 C2.44035594,3.5 3,2.94035594 3,2.25 C3,1.55964406 3.44035594,1 1.75,1 C0.0596440628,1 0.5,1.55964406 0.5,2.25 C0.5,2.94035594 1.05964406,3.5 1.75,3.5 Z M5.25,3.5 C5.94035594,3.5 6.5,2.94035594 6.5,2.25 C6.5,1.55964406 6.94035594,1 5.25,1 C3.55964406,1 4,1.55964406 4,2.25 C4,2.94035594 4.55964406,3.5 5.25,3.5 Z" id="path-9"></path>
    </defs>
    <g id="Page-1" stroke="none" stroke-width="1" fill="none" fill-rule="evenodd" sketch:type="MSPage">
        <g id="People---Avatars" sketch:type="MSLayerGroup" transform="translate(-96.000000, 0.000000)">
            <g id="Advisor-Avatar" transform="translate(96.000000, 0.000000)">
                <mask id="mask-2" sketch:name="Mask" fill="white">
                    <use xlink:href="#path-1"></use>
                </mask>
                <g id="Mask"></g>
                <g id="Advisor" mask="url(#mask-2)">
                    <g transform="translate(0.000000, 1.000000)">
                        <g id="Shirt" transform="translate(4.000000, 9.000000)">
                            <path d="M4,0 C1.52283608,2.22044605e-16 -0.5,1 -0.5,1 L-0.5,6 L8.5,6 L8.5,1 C8.5,1 6.47716392,0 4,0 Z" id="Undershirt" fill="#FDFDFD" sketch:type="MSShapeGroup"></path>
                            <path d="M4.32432432,3.25675676 L6,2 L2,2 L3.67567568,3.25675676 L2.5,6 L5.5,6 L4.32432432,3.25675676 Z" id="Tie" fill="#AF1639" sketch:type="MSShapeGroup"></path>
                            <path d="M4,2 L2,3 L0,0.5 L4,2 Z M4,2 L6,3 L8,0.5 L4,2 Z" id="Collar" fill="#DAD8CF" sketch:type="MSShapeGroup"></path>
                        </g>
                        <g id="Sweater" transform="translate(0.000000, 10.000000)">
                            <mask id="mask-4" sketch:name="Sweater" fill="white">
                                <use xlink:href="#path-3"></use>
                            </mask>
                            <use fill="#B7697B" sketch:type="MSShapeGroup" xlink:href="#path-3"></use>
                            <path d="M0.5,4.83327167 L0.5,1.64829225 C0.318453028,1.83032487 0.151419275,2.01934529 0,2.21461933 L2.20934382e-13,3.96854272 C2.20934382e-13,4.33823084 0.200207245,4.66094927 0.5,4.83327167 Z M1.5,4.96608737 L1.5,0.816108212 C1.32559037,0.937485792 1.15875496,1.06373927 1,1.19453114 L1,4.966087 C1.00029052,4.96608725 1.00058108,4.96608737 1.00087166,4.96608737 L1.5,4.96608737 Z M2.5,4.96608737 L2.5,0.216452543 C2.32829552,0.304951755 2.16152169,0.397497139 2,0.493874354 L2,4.96608737 L2.5,4.96608737 Z M3.5,4.96608737 L3.5,-0.23121946 C3.32972834,-0.1655549 3.16298308,-0.0962782265 3,-0.0235466069 L3,4.96608737 L3.5,4.96608737 Z M4.5,4.96608737 L4.5,1.42890989 C4.32672962,1.09604841 4.16623139,0.764990441 4,0.460079439 L4,4.96608737 L4.5,4.96608737 Z M5.5,4.96608737 L5.5,2.93487097 C5.31412057,2.73764253 5.14968434,2.52164882 5,2.29569212 L5,4.96608737 L5.5,4.96608737 Z M6.5,4.96608737 L6.5,3.6642954 C6.31943464,3.58154384 6.15347385,3.48396548 6,3.37434599 L6,4.96608737 L6.5,4.96608737 Z M7.5,4.96608737 L7.5,3.93770952 C7.3233025,3.91689712 7.15694226,3.88500039 7,3.84322861 L7,4.96608737 L7.5,4.96608737 Z M8.5,4.96608737 L8.5,3.93770951 C8.34183561,3.95633898 8.17538871,3.96608737 8,3.96608737 L8,4.96608737 L8.5,4.96608737 Z M9.5,4.96608737 L9.5,3.66429538 C9.34460058,3.7355136 9.17838387,3.79574992 9,3.8432286 L9,4.96608737 L9.5,4.96608737 Z M10.5,4.96608737 L10.5,2.93487095 C10.3487357,3.09537081 10.183271,3.24344369 10,3.37434597 L10,4.96608737 L10.5,4.96608737 Z M11.5,4.96608737 L11.5,1.42890987 C11.3474442,1.72197749 11.1849876,2.01644317 11,2.2956921 L11,4.96608737 L11.5,4.96608737 Z M12.5,4.96608737 L12.5,-0.23121946 C12.4836809,-0.237512865 12.4673293,-0.243773092 12.4509456,-0.25 C12.2887011,-0.0426241852 12.1422514,0.199153963 12,0.460079435 L12,4.96608737 L12.5,4.96608737 Z M13.5,4.96608737 L13.5,0.216452543 C13.3376507,0.132775156 13.1708935,0.0527150461 13,-0.0235466069 L13,4.96608737 L13.5,4.96608737 Z M14.5,4.96608737 L14.5,0.816108212 C14.3396077,0.704485791 14.1728098,0.596987007 14,0.493874354 L14,4.96608737 L14.5,4.96608737 Z M15.5,4.83244894 L15.5,1.64829225 C15.343838,1.49171252 15.1769377,1.34030307 15,1.19453114 L15,4.966087 C15.1821554,4.96593237 15.3529212,4.9173117 15.5,4.83244894 Z" id="Pinstripes" opacity="0.2" fill="#AF1639" sketch:type="MSShapeGroup" mask="url(#mask-4)"></path>
                        </g>
                        <g id="Face" transform="translate(4.000000, 0.000000)">
                            <g id="Person-Face" sketch:type="MSShapeGroup">
                                <path d="M4,10 C6.34033203,10 8,7.762 8,5 C8,2.238 8,0 4,0 C0,0 0,2.238 0,5 C0,7.762 1.65966797,10 4,10 Z" id="Outer-Frame" fill-opacity="0.65" fill="#D9D9D9"></path>
                                <path d="M4,1 C6.66961542,1 7,1.59783089 7,5 C7,7.31386274 5.68154504,9 4,9 C2.31845496,9 1,7.31386274 1,5 C1,1.59783089 1.33038458,1 4,1 Z" id="Inner-Fill" fill="#FCFCFC"></path>
                            </g>
                            <path d="M4,10 C6.34033203,10 8,7.762 8,5 C8,2.238 8,0 4,0 C0,0 0,2.238 0,5 C0,7.762 1.65966797,10 4,10 Z M4,1 C6.66961542,1 7,1.59783089 7,5 C7,7.31386274 5.68154504,9 4,9 C2.31845496,9 1,7.31386274 1,5 C1,1.59783089 1.33038458,1 4,1 Z" id="Face-Glow" fill="url(#radialGradient-5)" sketch:type="MSShapeGroup"></path>
                        </g>
                        <g id="Glasses" transform="translate(4.500000, 2.000000)">
                            <path d="M3,2.25 L4,2.25" id="Bridge" stroke="#E1BAC2" stroke-width="0.5" stroke-linecap="square" sketch:type="MSShapeGroup"></path>
                            <g id="Lenses">
                                <use stroke-opacity="0.6" stroke="#FFFFFF" stroke-width="1" fill="#FFFFFF" fill-rule="evenodd" sketch:type="MSShapeGroup" xlink:href="#path-6"></use>
                                <use stroke="#AF1639" stroke-width="0.25" fill="none" xlink:href="#path-6"></use>
                            </g>
                            <g id="Rectangle-210-+-Lenses-2">
                                <mask id="mask-8" sketch:name="Rectangle 210" fill="white">
                                    <use xlink:href="#path-7"></use>
                                </mask>
                                <use id="Rectangle-210" sketch:type="MSShapeGroup" xlink:href="#path-7"></use>
                                <g id="Lenses-2">
                                    <use stroke="none" sketch:type="MSShapeGroup" mask="url(#mask-8)" xlink:href="#path-9"></use>
                                    <use stroke="#AF1639" stroke-width="0.5" xlink:href="#path-9"></use>
                                </g>
                            </g>
                            <path d="M1.5,2 L1.5,3 L2.5,3 L2.5,2 L1.5,2 Z M4.5,2 L4.5,3 L5.5,3 L5.5,2 L4.5,2 Z" id="Eyes" fill="#FFFFFF" sketch:type="MSShapeGroup"></path>
                        </g>
                    </g>
                </g>
            </g>
        </g>
    </g>
</svg>