<?xml version="1.0" encoding="UTF-8" standalone="no"?>
<svg width="16px" height="16px" viewBox="0 0 16 16" version="1.1" xmlns="http://www.w3.org/2000/svg" xmlns:xlink="http://www.w3.org/1999/xlink" xmlns:sketch="http://www.bohemiancoding.com/sketch/ns">
    <!-- Generator: Sketch 3.0.1 (7597) - http://www.bohemiancoding.com/sketch -->
    <title>wr-icon-newbie-av</title>
    <description>Created with Sketch.</description>
    <defs>
        <rect id="path-1" x="0" y="0" width="16" height="16"></rect>
        <rect id="path-3" x="0" y="0" width="10" height="8"></rect>
        <radialGradient cx="50%" cy="0%" fx="50%" fy="0%" r="87.4900351%" id="radialGradient-5">
            <stop stop-color="#4095C5" offset="0%"></stop>
            <stop stop-color="#4095C5" stop-opacity="0" offset="100%"></stop>
        </radialGradient>
    </defs>
    <g id="Page-1" stroke="none" stroke-width="1" fill="none" fill-rule="evenodd" sketch:type="MSPage">
        <g id="People---Avatars" sketch:type="MSLayerGroup" transform="translate(-64.000000, 0.000000)">
            <g id="Newbie-Avatar" transform="translate(64.000000, 0.000000)">
                <mask id="mask-2" sketch:name="Mask" fill="white">
                    <use xlink:href="#path-1"></use>
                </mask>
                <g id="Mask"></g>
                <g id="Newbie" mask="url(#mask-2)">
                    <path d="M16,13.248532 L16,16.0024554 C16,16.5536886 15.5518945,17 14.9991283,17 L1.00087166,17 C0.444630861,17 -6.43929354e-15,16.553384 -6.43929354e-15,16.0024554 L-2.27373675e-13,13.248532 C0.800687443,12.2159456 2.03798241,11.3582213 3.54905437,10.7839126 C4.61616051,12.1478536 6.16923848,14 8,14 C9.83076152,14 11.3838395,12.1478536 12.4509456,10.7839126 C13.9620176,11.3582213 15.1993126,12.2159456 16,13.248532 Z" id="Shirt" fill="#E8F3FA" sketch:type="MSShapeGroup"></path>
                    <g id="Face" transform="translate(3.000000, 5.000000)">
                        <mask id="mask-4" sketch:name="Mask" fill="white">
                            <use xlink:href="#path-3"></use>
                        </mask>
                        <use id="Mask" sketch:type="MSShapeGroup" xlink:href="#path-3"></use>
                        <g id="Person-Face" mask="url(#mask-4)" sketch:type="MSShapeGroup">
                            <g transform="translate(1.000000, -3.000000)">
                                <path d="M4,10 C6.34033203,10 8,7.762 8,5 C8,2.238 8,0 4,0 C0,0 0,2.238 0,5 C0,7.762 1.65966797,10 4,10 Z" id="Outer-Frame" fill-opacity="0.65" fill="#D9D9D9"></path>
                                <path d="M4,1 C6.66961542,1 7,1.59783089 7,5 C7,7.31386274 5.68154504,9 4,9 C2.31845496,9 1,7.31386274 1,5 C1,1.59783089 1.33038458,1 4,1 Z" id="Inner-Fill" fill="#FCFCFC"></path>
                            </g>
                        </g>
                        <path d="M5,7 C7.34033203,7 9,4.762 9,2 C9,-0.762 9,-3 5,-3 C1,-3 1,-0.762 1,2 C1,4.762 2.65966797,7 5,7 Z M5,-2 C7.66961542,-2 8,-1.40216911 8,2 C8,4.31386274 6.68154504,6 5,6 C3.31845496,6 2,4.31386274 2,2 C2,-1.40216911 2.33038458,-2 5,-2 Z" id="Face-Glow" fill="url(#radialGradient-5)" sketch:type="MSShapeGroup" mask="url(#mask-4)"></path>
                    </g>
                    <g id="Beanie" transform="translate(1.000000, 0.000000)" sketch:type="MSShapeGroup">
                        <g id="Hat" transform="translate(0.000000, 0.500000)">
                            <path d="M10.9423741,4.6015784 C9.76404597,4.85604583 8.42285006,5 7,5 C5.57714994,5 4.23595404,4.85604583 3.05762594,4.60157841 C3.23682743,2.78161313 3.97329837,2 7,2 C10.0118224,2 10.7558762,2.76881647 10.9396906,4.57477324 C10.9405987,4.58369521 10.9414931,4.5926303 10.9423741,4.6015784 Z" fill="#4095C5"></path>
                            <path d="M3.0215384,5.1052012 C4.24074517,5.36282708 5.59627698,5.5 7,5.5 C8.4036955,5.5 9.75922063,5.36283438 10.9784616,5.10520057 C10.9696421,4.92393369 10.9572114,4.74691337 10.9396906,4.57477324 C10.9228711,4.40952317 10.9013608,4.25295683 10.8738516,4.10486865 C9.69922774,4.36175484 8.37596953,4.5 7,4.5 C5.62407604,4.5 4.30088473,4.3617615 3.12636161,4.10491636 C3.09719409,4.26138439 3.07475919,4.42727873 3.05750284,4.60282962 C3.04145059,4.76613112 3.02987941,4.93376699 3.0215384,5.1052012 Z" id="Hat-Stripe" fill="#00398C"></path>
                        </g>
                        <g id="Propellor-Blades" transform="translate(3.000000, 1.000000)">
                            <path d="M5.85714286,0 C5.06357219,0 4,0.5 4,0.5 C4,0.5 5.06357219,1 5.85714286,1 C6.65071353,1 7.71428571,0.5 7.71428571,0.5 C7.71428571,0.5 6.65071353,0 5.85714286,0 Z" id="Right-Blade" fill="#FF554F"></path>
                            <path d="M2.12470725,8.8817842e-16 C2.91827792,8.8817842e-16 3.9818501,0.5 3.9818501,0.5 C3.9818501,0.5 2.91827792,1 2.12470725,1 C1.33113658,1 0.267564391,0.5 0.267564391,0.5 C0.267564391,0.5 1.33113658,8.8817842e-16 2.12470725,8.8817842e-16 Z" id="Left-Blade" fill="#14B6BC"></path>
                        </g>
                    </g>
                </g>
            </g>
        </g>
    </g>
</svg>