<?xml version="1.0" encoding="UTF-8" standalone="no"?>
<svg width="16px" height="16px" viewBox="0 0 16 16" version="1.1" xmlns="http://www.w3.org/2000/svg" xmlns:xlink="http://www.w3.org/1999/xlink" xmlns:sketch="http://www.bohemiancoding.com/sketch/ns">
    <!-- Generator: Sketch 3.0.1 (7597) - http://www.bohemiancoding.com/sketch -->
    <title>wr-icon-guides</title>
    <description>Created with Sketch.</description>
    <defs>
        <rect id="path-1" x="0" y="0" width="16" height="16"></rect>
        <linearGradient x1="0%" y1="50%" x2="100%" y2="50%" id="linearGradient-3">
            <stop stop-color="#FFAF00" offset="0%"></stop>
            <stop stop-color="#FFAF00" stop-opacity="0.5" offset="49.8565674%"></stop>
            <stop stop-color="#FFAF00" offset="100%"></stop>
        </linearGradient>
    </defs>
    <g id="Page-1" stroke="none" stroke-width="1" fill="none" fill-rule="evenodd" sketch:type="MSPage">
        <g id="Ideas/Resources" sketch:type="MSLayerGroup" transform="translate(-216.000000, 0.000000)">
            <g id="Guides" transform="translate(216.000000, 0.000000)">
                <mask id="mask-2" sketch:name="Mask" fill="white">
                    <use xlink:href="#path-1"></use>
                </mask>
                <g id="Mask"></g>
                <g id="Lighthouse" mask="url(#mask-2)" sketch:type="MSShapeGroup">
                    <g id="Base" transform="translate(2.000000, 5.000000)">
                        <path d="M4,0 L2,11 L10,11 L8,0 L4,0 Z" stroke="#D9D9D9" stroke-width="0.5" stroke-linejoin="round" fill="#FFFFFF"></path>
                        <path d="M3.45454545,3 L8.54545455,3 L8.18181818,1 L3.81818182,1 L3.45454545,3 Z M2.72727273,7 L9.27272727,7 L8.90909091,5 L3.09090909,5 L2.72727273,7 Z M9.63636364,9 L2.36363636,9 L2,11 L10,11 L9.63636364,9 Z" id="Stripes" fill="#AF1639"></path>
                    </g>
                    <circle id="Roof-Ball" fill="#D8D8D8" cx="8" cy="1" r="1"></circle>
                    <path d="M16,0.5 L8,2.5 L8,3.5 L16,5.5 L16,0.5 Z M0,0.5 L8,2.5 L8,3.5 L0,5.5 L0,0.5 Z" id="Beams" opacity="0.6" fill="url(#linearGradient-3)"></path>
                </g>
            </g>
        </g>
    </g>
</svg>