<?xml version="1.0" encoding="UTF-8" standalone="no"?>
<svg width="16px" height="16px" viewBox="0 0 16 16" version="1.1" xmlns="http://www.w3.org/2000/svg" xmlns:xlink="http://www.w3.org/1999/xlink" xmlns:sketch="http://www.bohemiancoding.com/sketch/ns">
    <!-- Generator: Sketch 3.0.1 (7597) - http://www.bohemiancoding.com/sketch -->
    <title>wr-icon-data</title>
    <description>Created with Sketch.</description>
    <defs>
        <rect id="path-1" x="0" y="0" width="16" height="16"></rect>
    </defs>
    <g id="Page-1" stroke="none" stroke-width="1" fill="none" fill-rule="evenodd" sketch:type="MSPage">
        <g id="Ideas/Resources" sketch:type="MSLayerGroup" transform="translate(-64.000000, 0.000000)">
            <g id="Data" transform="translate(64.000000, 0.000000)">
                <mask id="mask-2" sketch:name="Mask" fill="white">
                    <use xlink:href="#path-1"></use>
                </mask>
                <g id="Mask"></g>
                <g id="Pie-Chart" mask="url(#mask-2)" sketch:type="MSShapeGroup">
                    <g transform="translate(-6.000000, -5.000000)">
                        <path d="M16.105467,5.27995425 L14,13 L21.0244902,9.1684599 C19.9933055,7.28195856 18.2243009,5.85645976 16.105467,5.27995425 Z" id="Path-598" fill="#6D22D7"></path>
                        <path d="M17.3838897,20.2511922 L14,13 L21.0244902,9.1684599 C21.646452,10.3063084 22,11.6118664 22,13 C22,16.2088658 20.1107523,18.9764742 17.3838897,20.2511922 Z" id="Path-599" fill="#FFAF00"></path>
                        <path d="M17.3838897,20.2511922 L14,13 L12.4307693,20.8461537 C12.9381974,20.9470742 13.462918,21 14,21 C15.2094122,21 16.3561431,20.7316297 17.3838897,20.2511922 Z" id="Path-600" fill="#AF1639"></path>
                        <path d="M8.83235322,19.1072189 L14,13 L12.4307693,20.8461537 C11.0770038,20.5769082 9.84632013,19.9660516 8.83235322,19.1072189 Z" id="Path-601" fill="#FF769F"></path>
                        <path d="M8.93394595,19.1918438 L14,13 L6.53122298,10.1273935 C6.18808575,11.0189763 6,11.9875233 6,13 C6,15.4958367 7.14292607,17.7247288 8.93394595,19.1918438 Z" id="Path-602" fill="#4095C5"></path>
                        <path d="M14.629704,5.02441882 L13,11 L7.20724832,8.77201859 C8.61997768,6.50709919 11.1339879,5 14,5 C14.211927,5 14.4219293,5.00824059 14.629704,5.02441882 Z" id="Path-603" fill="#00D679"></path>
                    </g>
                </g>
            </g>
        </g>
    </g>
</svg>