<?xml version="1.0" encoding="UTF-8" standalone="no"?>
<svg width="16px" height="16px" viewBox="0 0 16 16" version="1.1" xmlns="http://www.w3.org/2000/svg" xmlns:xlink="http://www.w3.org/1999/xlink" xmlns:sketch="http://www.bohemiancoding.com/sketch/ns">
    <!-- Generator: Sketch 3.0.1 (7597) - http://www.bohemiancoding.com/sketch -->
    <title>wr-icon-employee-av</title>
    <description>Created with Sketch.</description>
    <defs>
        <rect id="path-1" x="0" y="0" width="16" height="16"></rect>
        <radialGradient cx="50%" cy="0%" fx="50%" fy="0%" r="87.4900351%" id="radialGradient-3">
            <stop stop-color="#4095C5" offset="0%"></stop>
            <stop stop-color="#4095C5" stop-opacity="0" offset="100%"></stop>
        </radialGradient>
        <rect id="path-4" x="0" y="0" width="4" height="2"></rect>
    </defs>
    <g id="Page-1" stroke="none" stroke-width="1" fill="none" fill-rule="evenodd" sketch:type="MSPage">
        <g id="People---Avatars" sketch:type="MSLayerGroup" transform="translate(-32.000000, 0.000000)">
            <g id="Employee-Avatar" transform="translate(32.000000, 0.000000)">
                <mask id="mask-2" sketch:name="Mask" fill="white">
                    <use xlink:href="#path-1"></use>
                </mask>
                <g id="Mask"></g>
                <g id="Employee" mask="url(#mask-2)">
                    <g transform="translate(-1.000000, 1.000000)">
                        <g id="Shirt" transform="translate(0.000000, 9.000000)">
                            <path d="M17,2.24853196 L17,5.00245535 C17,5.5536886 16.5518945,6 15.9991283,6 L2.00087166,6 C1.44463086,6 1,5.55338405 1,5.00245535 L1,2.24853196 C1.80068744,1.21594562 3.03798241,0.358221283 4.54905437,-0.216087369 C5.61616051,1.14785363 7.16923848,3 9,3 C10.8307615,3 12.3838395,1.14785363 13.4509456,-0.216087369 C14.9620176,0.358221283 16.1993126,1.21594562 17,2.24853196 Z" fill="#EBF8FF" sketch:type="MSShapeGroup"></path>
                            <g id="Plaid" transform="translate(-0.000000, -0.216087)" sketch:type="MSShapeGroup">
                                <path d="M9,3.21608737 L9,6.21608737 L11,6.21608737 L11,2.51179369 C10.3836335,2.93526624 9.71286783,3.21608737 9,3.21608737 Z M12,1.67290962 L12,6.21608737 L14,6.21608737 L14,0.226453393 C13.8213963,0.146751048 13.6382748,0.0711976419 13.4509456,0 C13.0365258,0.529698178 12.5488106,1.13302865 12,1.67290962 Z M15,0.743874354 L15,6.21608737 L15.9991283,6.21608737 C16.5518945,6.21608737 17,5.76977597 17,5.21854272 L17,2.46461933 C16.4940015,1.8120712 15.8136364,1.2293572 15,0.743874354 Z M6,1.67290962 L6,6.21608737 L8,6.21608737 L8,3.03586576 C7.27110058,2.77607644 6.59914258,2.26230364 6,1.67290962 Z M3,0.743874354 L3,6.21608737 L5,6.21608737 L5,0.564457255 C4.8414195,0.371341331 4.69094108,0.181355069 4.54905437,0 C3.99291194,0.211371408 3.47385455,0.461133482 3,0.743874354 Z M2,6.216087 L2,1.44453114 C1.61736234,1.75977103 1.28166619,2.10137564 1,2.46461933 L1,5.21854272 C1,5.76918361 1.44416643,6.21562071 2,6.216087 Z" id="Vertical" fill="#E9F4FA"></path>
                                <path d="M1,5.10927136 L1,5 L17,5 L17,5.10927136 L17,5.21854272 C17,5.53524206 16.8520879,5.81730846 16.6213953,6 L1.37726058,6 C1.1468161,5.81725736 1,5.53512196 1,5.21854272 L1,5.10927136 Z M10.0961745,3 L17,3 L17,4 L1,4 L1,3 L7.9038255,3 C8.25616937,3.137201 8.62217115,3.21608737 9,3.21608737 C9.37782885,3.21608737 9.74383063,3.137201 10.0961745,3 Z M1.4007702,2 L6.34990865,2 C6.00010522,1.6904887 5.67207499,1.34679591 5.3685839,1 L2.59645519,1 C2.14698103,1.30338859 1.74566361,1.63855909 1.4007702,2 Z M11.6500913,2 L16.5992298,2 C16.2543364,1.63855909 15.853019,1.30338859 15.4035448,1 L12.6314161,1 C12.327925,1.34679591 11.9998948,1.6904887 11.6500913,2 Z" id="Horizontal" fill="#D5EBF8"></path>
                            </g>
                        </g>
                        <g id="Face" transform="translate(5.000000, 0.000000)">
                            <g id="Person-Face-5" sketch:type="MSShapeGroup">
                                <path d="M4,10 C6.34033203,10 8,7.762 8,5 C8,2.238 8,0 4,0 C0,0 0,2.238 0,5 C0,7.762 1.65966797,10 4,10 Z" id="Outer-Frame" fill-opacity="0.65" fill="#D9D9D9"></path>
                                <path d="M4,1 C6.66961542,1 7,1.59783089 7,5 C7,7.31386274 5.68154504,9 4,9 C2.31845496,9 1,7.31386274 1,5 C1,1.59783089 1.33038458,1 4,1 Z" id="Inner-Fill" fill="#FCFCFC"></path>
                            </g>
                            <path d="M4,10 C6.34033203,10 8,7.762 8,5 C8,2.238 8,0 4,0 C0,0 0,2.238 0,5 C0,7.762 1.65966797,10 4,10 L4,10 Z M4,1 C6.66961542,1 7,1.59783089 7,5 C7,7.31386274 5.68154504,9 4,9 C2.31845496,9 1,7.31386274 1,5 C1,1.59783089 1.33038458,1 4,1 L4,1 Z" id="Face-Glow" fill="url(#radialGradient-3)" sketch:type="MSShapeGroup"></path>
                        </g>
                        <g id="Tag" transform="translate(11.000000, 12.000000)">
                            <rect id="Clip" fill="#D8D8D8" sketch:type="MSShapeGroup" x="1.5" y="0" width="1" height="1"></rect>
                            <rect fill="#FFFFFF" sketch:type="MSShapeGroup" x="0" y="1" width="4" height="2"></rect>
                            <g id="Stripe" transform="translate(0.000000, 1.000000)">
                                <mask id="mask-5" sketch:name="Mask" fill="white">
                                    <use xlink:href="#path-4"></use>
                                </mask>
                                <use id="Mask" sketch:type="MSShapeGroup" xlink:href="#path-4"></use>
                                <rect fill="#4095C5" sketch:type="MSShapeGroup" mask="url(#mask-5)" x="0" y="-0.5" width="4" height="1"></rect>
                            </g>
                        </g>
                    </g>
                </g>
            </g>
        </g>
    </g>
</svg>