<?xml version="1.0" encoding="UTF-8" standalone="no"?>
<svg width="16px" height="16px" viewBox="0 0 16 16" version="1.1" xmlns="http://www.w3.org/2000/svg" xmlns:xlink="http://www.w3.org/1999/xlink" xmlns:sketch="http://www.bohemiancoding.com/sketch/ns">
    <!-- Generator: Sketch 3.0.1 (7597) - http://www.bohemiancoding.com/sketch -->
    <title>wr-icon-advisor</title>
    <description>Created with Sketch.</description>
    <defs>
        <rect id="path-1" x="0" y="0" width="16" height="16"></rect>
        <path d="M3,11 C4.2,11 6,9.8 6,8 C6,6.2 6,5 3,5 C0,5 -5.20417043e-19,6.2 -5.20417043e-19,8 C1.99840144e-16,9.8 1.8,11 3,11 Z M11,11 C12.2,11 14,9.8 14,8 C14,6.2 14,5 11,5 C8,5 8,6.2 8,8 C8,9.8 9.8,11 11,11 Z" id="path-3"></path>
    </defs>
    <g id="Page-1" stroke="none" stroke-width="1" fill="none" fill-rule="evenodd" sketch:type="MSPage">
        <g id="People" sketch:type="MSLayerGroup" transform="translate(-96.000000, 0.000000)">
            <g id="Advisor" transform="translate(96.000000, 0.000000)">
                <mask id="mask-2" sketch:name="Mask" fill="white">
                    <use xlink:href="#path-1"></use>
                </mask>
                <g id="Mask"></g>
                <g id="Glasses" mask="url(#mask-2)">
                    <g transform="translate(1.000000, 2.000000)">
                        <path d="M5.5,7.4981649 C6.0319478,7.47574189 6.53050784,7 6.97869676,7 C7.43882055,7 7.95205114,7.47643222 8.5,7.5" id="Bridge" stroke="#AF1639" stroke-width="0.5" fill="none" sketch:type="MSShapeGroup"></path>
                        <g id="Arm-1-+-Arm-2" stroke="none" stroke-width="1" fill="none" fill-rule="evenodd" sketch:type="MSLayerGroup" stroke-linecap="round" stroke-linejoin="round">
                            <path d="M10.8000031,6.40000153 C10.8000031,6.40000153 11.8000031,2.08058168 11.8000031,2.08058162 C12.390554,0.309166767 13.8000031,0.400807207 13.8000031,0.400807207" id="Arm-3" stroke="#FFFFFF" stroke-width="0.5" opacity="0.8" sketch:type="MSShapeGroup" transform="translate(12.300003, 3.400002) scale(-1, 1) translate(-12.300003, -3.400002) "></path>
                            <path d="M11,6 C11,6 12,1.68058015 12,1.68058009 C12.5905509,-0.090834759 14,0.000805681074 14,0.000805681074" id="Arm-2" stroke="#AF1639" stroke-width="0.5" sketch:type="MSShapeGroup" transform="translate(12.500000, 3.000000) scale(-1, 1) translate(-12.500000, -3.000000) "></path>
                            <path d="M0.199996948,6.40000153 C0.199996948,6.40000153 1.19999696,2.08058168 1.19999695,2.08058162 C1.79054786,0.309166767 3.19999695,0.400807207 3.19999695,0.400807207" id="Arm-4" stroke="#FFFFFF" stroke-width="0.5" sketch:type="MSShapeGroup"></path>
                            <path d="M0,6 C0,6 1.00000001,1.68058015 1,1.68058009 C1.59055092,-0.090834759 3,0.000805681074 3,0.000805681074" id="Arm-1" stroke="#AF1639" stroke-width="0.5" sketch:type="MSShapeGroup"></path>
                        </g>
                        <g id="Lenses">
                            <use stroke-opacity="0.7" stroke="#D79FAB" stroke-width="0.5" fill-opacity="0.9" fill="#FFFFFF" fill-rule="evenodd" sketch:type="MSShapeGroup" xlink:href="#path-3"></use>
                            <use stroke="none" fill="none" xlink:href="#path-3"></use>
                        </g>
                        <path d="M14,7.75862069 C14,6.10344828 14,5 11,5 C8,5 8,6.10344828 8,7.75862069 M6,7.75862069 C6,6.10344828 6,5 3,5 C0,5 -5.20417043e-19,6.10344828 -5.20417043e-19,7.75862069" id="Frames" stroke="#AF1639" stroke-width="1" fill="none" sketch:type="MSShapeGroup"></path>
                    </g>
                </g>
            </g>
        </g>
    </g>
</svg>