<?xml version="1.0" encoding="UTF-8" standalone="no"?>
<svg width="16px" height="16px" viewBox="0 0 16 16" version="1.1" xmlns="http://www.w3.org/2000/svg" xmlns:xlink="http://www.w3.org/1999/xlink" xmlns:sketch="http://www.bohemiancoding.com/sketch/ns">
    <!-- Generator: Sketch 3.0.1 (7597) - http://www.bohemiancoding.com/sketch -->
    <title>wr-icon-mount-pleasant</title>
    <description>Created with Sketch.</description>
    <defs>
        <rect id="path-1" x="0" y="0" width="16" height="16"></rect>
        <radialGradient cx="50%" cy="90.5172394%" fx="50%" fy="90.5172394%" r="102.580838%" id="radialGradient-3">
            <stop stop-color="#64ACBA" stop-opacity="0.7" offset="0%"></stop>
            <stop stop-color="#51D3ED" stop-opacity="0.8" offset="20.950044%"></stop>
            <stop stop-color="#EDF8FA" stop-opacity="0.75" offset="52.1945716%"></stop>
            <stop stop-color="#F7FCFC" stop-opacity="0.5" offset="78.4313878%"></stop>
            <stop stop-color="#FFFFFF" stop-opacity="0.2" offset="100%"></stop>
        </radialGradient>
        <rect id="path-4" x="0" y="0" width="16" height="16" rx="2"></rect>
    </defs>
    <g id="Page-1" stroke="none" stroke-width="1" fill="none" fill-rule="evenodd" sketch:type="MSPage">
        <g id="Places" sketch:type="MSLayerGroup" transform="translate(-96.000000, 0.000000)">
            <g id="Mount-Pleasant" transform="translate(96.000000, 0.000000)">
                <mask id="mask-2" sketch:name="Mask" fill="white">
                    <use xlink:href="#path-1"></use>
                </mask>
                <g id="Mask"></g>
                <mask id="mask-5" sketch:name="Background" fill="white">
                    <use xlink:href="#path-4"></use>
                </mask>
                <use id="Background" opacity="0.9" fill="url(#radialGradient-3)" sketch:type="MSShapeGroup" xlink:href="#path-4"></use>
                <g id="Clock" mask="url(#mask-5)">
                    <g transform="translate(1.000000, -0.500000)">
                        <path d="M6,13.5 L6,16.5 L8,16.5 L8,13.5 L9,13.5 L9,12.5 L5,12.5 L5,13.5 L6,13.5 Z" id="Base" stroke="none" fill="#3D444D" sketch:type="MSShapeGroup"></path>
                        <g id="Crown" stroke="none" stroke-width="1" fill="none" sketch:type="MSLayerGroup">
                            <path d="M11.2426407,3.75735931 C10.8166633,3.33138194 10.3269318,2.96915873 9.78898663,2.68623023 L9,1.69999695 L7.979997,1.69999695 L7.979997,1.69999695 C7.99311416,1.63537591 8,1.56849209 8,1.5 C8,0.94771525 7.55228475,0.5 7,0.5 C6.44771525,0.5 6,0.94771525 6,1.5 C6,1.56849209 6.00688584,1.63537591 6.020003,1.69999695 L5,1.69999695 L4.21101337,2.68623023 L4.21101337,2.68623023 C3.67306822,2.96915873 3.18333669,3.33138194 2.75735931,3.75735931 L7,8 L11.2426407,3.75735931 Z" id="Frame" fill="#3D444C" sketch:type="MSShapeGroup"></path>
                            <path d="M9.32642416,3.01480538 C8.61984839,2.68450459 7.83147088,2.5 7,2.5 C6.16852912,2.5 5.38015161,2.68450459 4.67357584,3.01480538 L7,8 L9.32642416,3.01480538 Z" id="Welcome" fill="#FFFFFF" sketch:type="MSShapeGroup"></path>
                            <circle id="Seal" fill="#FFAF00" sketch:type="MSShapeGroup" cx="7" cy="1.5" r="0.5"></circle>
                        </g>
                        <rect id="Leaves" stroke="none" fill="#FFAF00" sketch:type="MSShapeGroup" x="6.5" y="13" width="1" height="1"></rect>
                        <g id="Clock-Face" stroke="none" stroke-width="1" fill="none" sketch:type="MSLayerGroup" transform="translate(2.000000, 3.000000)">
                            <path d="M5,10 C7.76142375,10 10,7.76142375 10,5 C10,2.23857625 7.76142375,0 5,0 C2.23857625,0 0,2.23857625 0,5 C0,7.76142375 2.23857625,10 5,10 Z" id="Face-Frame" fill="#3D444D" sketch:type="MSShapeGroup"></path>
                            <path d="M5,9 C7.209139,9 9,7.209139 9,5 C9,2.790861 7.209139,1 5,1 C2.790861,1 1,2.790861 1,5 C1,7.209139 2.790861,9 5,9 Z" id="Face-Inner-Frame" fill="#FFAF00" sketch:type="MSShapeGroup"></path>
                            <path d="M5,8.5 C6.93299662,8.5 8.5,6.93299662 8.5,5 C8.5,3.06700338 6.93299662,1.5 5,1.5 C3.06700338,1.5 1.5,3.06700338 1.5,5 C1.5,6.93299662 3.06700338,8.5 5,8.5 Z" id="Face" fill="#FFFFFF" sketch:type="MSShapeGroup"></path>
                            <g id="Hands" transform="translate(5.000000, 4.500000) rotate(-270.000000) translate(-5.000000, -4.500000) translate(3.500000, 2.500000)" stroke="#000000" stroke-width="0.5" stroke-linecap="round" sketch:type="MSShapeGroup">
                                <path d="M2.5,2.5 L0.5,0.5" id="Hour-Hand"></path>
                                <path d="M2.5,1.5 L0,4" id="Minute-Hand"></path>
                            </g>
                        </g>
                        <rect id="Sign" stroke="#3D444D" stroke-width="0.5" fill="#FFFFFF" sketch:type="MSShapeGroup" x="3.5" y="14.5" width="7" height="1" rx="0.5"></rect>
                    </g>
                </g>
            </g>
        </g>
    </g>
</svg>