<?xml version="1.0" encoding="UTF-8" standalone="no"?>
<svg width="16px" height="16px" viewBox="0 0 16 16" version="1.1" xmlns="http://www.w3.org/2000/svg" xmlns:xlink="http://www.w3.org/1999/xlink" xmlns:sketch="http://www.bohemiancoding.com/sketch/ns">
    <!-- Generator: Sketch 3.0.1 (7597) - http://www.bohemiancoding.com/sketch -->
    <title>wr-icon-gastown</title>
    <description>Created with Sketch.</description>
    <defs>
        <rect id="path-1" x="0" y="0" width="16" height="16"></rect>
        <radialGradient cx="50%" cy="91.2689209%" fx="50%" fy="91.2689209%" r="103.33252%" id="radialGradient-3">
            <stop stop-color="#6E483B" stop-opacity="0.7" offset="0%"></stop>
            <stop stop-color="#BA5E3F" stop-opacity="0.7" offset="20.950044%"></stop>
            <stop stop-color="#E4ECF0" stop-opacity="0.9" offset="52.1945716%"></stop>
            <stop stop-color="#FAFCFD" stop-opacity="0.9" offset="78.4313878%"></stop>
            <stop stop-color="#FFFFFF" stop-opacity="0.9" offset="100%"></stop>
        </radialGradient>
        <rect id="path-4" x="0" y="0" width="16" height="16" rx="2"></rect>
    </defs>
    <g id="Page-1" stroke="none" stroke-width="1" fill="none" fill-rule="evenodd" sketch:type="MSPage">
        <g id="Places" sketch:type="MSLayerGroup" transform="translate(-32.000000, 0.000000)">
            <g id="Gastown" transform="translate(32.000000, 0.000000)">
                <mask id="mask-2" sketch:name="Mask" fill="white">
                    <use xlink:href="#path-1"></use>
                </mask>
                <g id="Mask"></g>
                <g id="Steam-Clock" mask="url(#mask-2)">
                    <mask id="mask-5" sketch:name="Background" fill="white">
                        <use xlink:href="#path-4"></use>
                    </mask>
                    <use id="Background" opacity="0.8" fill="url(#radialGradient-3)" sketch:type="MSShapeGroup" xlink:href="#path-4"></use>
                    <g id="Clock" mask="url(#mask-5)">
                        <g transform="translate(-1.000000, -3.000000)">
                            <path d="M13,17.4013466 L13,17 L5,17 L5,17.4013466 L5,17.4013466 C5.89670206,17.9200607 6.5,18.8895765 6.5,20 C6.5,20.3506354 6.43984578,20.6872211 6.32929429,21 L11.6707057,21 C11.5601542,20.6872211 11.5,20.3506354 11.5,20 C11.5,18.8895765 12.1032979,17.9200607 13,17.4013466 Z M13,8 L13,9 L5,9 L5,8 L5,8 C6.86383943,8 8.42993972,6.72522721 8.87398251,5 L9.12601749,5 C9.57006028,6.72522721 11.1361606,8 13,8 L13,8 Z" id="Top-&amp;-Bottom" fill="#4C4235" sketch:type="MSShapeGroup"></path>
                            <g id="Front" stroke-width="1" fill="none" sketch:type="MSLayerGroup" transform="translate(5.000000, 9.000000)">
                                <rect id="Face-Frame" stroke="#806C53" fill="#F3E5CE" sketch:type="MSShapeGroup" x="0" y="-0.5" width="8" height="8"></rect>
                                <rect id="Flowers" stroke="#FFAF00" stroke-width="0.5" sketch:type="MSShapeGroup" x="1.5" y="1" width="5" height="5"></rect>
                                <g id="Clock-Face" transform="translate(1.000000, 0.500000)" sketch:type="MSShapeGroup">
                                    <circle fill="#F8F8F8" cx="3" cy="3" r="3"></circle>
                                    <circle id="Clock-Face-2" stroke="#FFAF00" stroke-width="0.25" stroke-linecap="round" opacity="0.8" cx="3" cy="3" r="2"></circle>
                                    <path d="M2.5,1.5 L3,3 L5,4.5" id="Hands" stroke="#332A1F" stroke-width="0.5"></path>
                                </g>
                            </g>
                            <g id="Top-Spout" stroke-width="1" fill="none" sketch:type="MSLayerGroup" transform="translate(8.500000, 3.000000)">
                                <rect fill="#332A1F" sketch:type="MSShapeGroup" x="-0.5" y="0" width="2" height="2"></rect>
                            </g>
                            <g id="Side-Spouts" stroke-width="1" fill="none" sketch:type="MSLayerGroup" transform="translate(3.000000, 5.000000)" stroke-linecap="square">
                                <g id="Line" transform="translate(-0.500000, 0.000000)" stroke="#332A1E" sketch:type="MSShapeGroup">
                                    <path d="M2,0 L2,1.96"></path>
                                </g>
                                <g id="Line" transform="translate(8.500000, 0.000000)" stroke="#332A1E" sketch:type="MSShapeGroup">
                                    <path d="M2,0 L2,1.96"></path>
                                </g>
                            </g>
                        </g>
                    </g>
                </g>
            </g>
        </g>
    </g>
</svg>